%TF.GenerationSoftware,KiCad,Pcbnew,5.1.9-73d0e3b20d~88~ubuntu20.04.1*%
%TF.CreationDate,2021-06-28T21:50:03+02:00*%
%TF.ProjectId,watch,77617463-682e-46b6-9963-61645f706362,rev?*%
%TF.SameCoordinates,Original*%
%TF.FileFunction,Copper,L4,Bot*%
%TF.FilePolarity,Positive*%
%FSLAX46Y46*%
G04 Gerber Fmt 4.6, Leading zero omitted, Abs format (unit mm)*
G04 Created by KiCad (PCBNEW 5.1.9-73d0e3b20d~88~ubuntu20.04.1) date 2021-06-28 21:50:03*
%MOMM*%
%LPD*%
G01*
G04 APERTURE LIST*
%TA.AperFunction,ConnectorPad*%
%ADD10C,3.800000*%
%TD*%
%TA.AperFunction,ComponentPad*%
%ADD11C,2.600000*%
%TD*%
%TA.AperFunction,SMDPad,CuDef*%
%ADD12R,1.500000X5.100000*%
%TD*%
%TA.AperFunction,SMDPad,CuDef*%
%ADD13C,13.000000*%
%TD*%
%TA.AperFunction,ComponentPad*%
%ADD14O,1.700000X1.700000*%
%TD*%
%TA.AperFunction,ComponentPad*%
%ADD15R,1.700000X1.700000*%
%TD*%
%TA.AperFunction,ViaPad*%
%ADD16C,0.800000*%
%TD*%
%TA.AperFunction,Conductor*%
%ADD17C,0.750000*%
%TD*%
%TA.AperFunction,Conductor*%
%ADD18C,0.250000*%
%TD*%
G04 APERTURE END LIST*
D10*
%TO.P,SW1,1*%
%TO.N,Net-(SW1-Pad1)*%
X193500000Y-113250000D03*
D11*
X193500000Y-113250000D03*
%TD*%
D12*
%TO.P,BT1,P2*%
%TO.N,+3V0*%
X218450000Y-109500000D03*
%TO.P,BT1,P1*%
X196550000Y-109500000D03*
D13*
%TO.P,BT1,N1*%
%TO.N,GND*%
X207500000Y-109500000D03*
%TD*%
D14*
%TO.P,J1,4*%
%TO.N,GND*%
X211620000Y-121750000D03*
%TO.P,J1,3*%
%TO.N,RST_SBWTDIO*%
X209080000Y-121750000D03*
%TO.P,J1,2*%
%TO.N,TST_SBWTCK*%
X206540000Y-121750000D03*
D15*
%TO.P,J1,1*%
%TO.N,Net-(D1-Pad2)*%
X204000000Y-121750000D03*
%TD*%
D11*
%TO.P,SW5,1*%
%TO.N,Net-(SW5-Pad1)*%
X220640000Y-103380000D03*
D10*
X220640000Y-103380000D03*
%TD*%
D11*
%TO.P,SW4,1*%
%TO.N,Net-(SW4-Pad1)*%
X220640000Y-115620000D03*
D10*
X220640000Y-115620000D03*
%TD*%
D11*
%TO.P,SW3,1*%
%TO.N,Net-(SW3-Pad1)*%
X217750000Y-119750000D03*
D10*
X217750000Y-119750000D03*
%TD*%
D11*
%TO.P,SW2,1*%
%TO.N,Net-(SW2-Pad1)*%
X217750000Y-99250000D03*
D10*
X217750000Y-99250000D03*
%TD*%
D16*
%TO.N,+3V0*%
X198120000Y-115443000D03*
X219202000Y-105918000D03*
X195516500Y-104267000D03*
X208253490Y-98488501D03*
%TO.N,GND*%
X207518000Y-102806500D03*
X217297000Y-104775000D03*
X197507510Y-105933431D03*
%TO.N,Net-(DISP1-Pad8)*%
X200315990Y-110299593D03*
X211306403Y-102759674D03*
%TO.N,Net-(DISP1-Pad9)*%
X198882000Y-119570500D03*
X210132466Y-102906041D03*
%TO.N,Net-(DISP1-Pad4)*%
X199009000Y-106680000D03*
X208978500Y-116713000D03*
%TO.N,Net-(DISP1-Pad5)*%
X210502500Y-119697500D03*
X199685055Y-111491940D03*
%TO.N,Net-(DISP1-Pad11)*%
X200025001Y-120268999D03*
X203290000Y-102429491D03*
%TO.N,Net-(DISP1-Pad6)*%
X212725006Y-118999000D03*
X199009000Y-105664000D03*
%TO.N,Net-(DISP1-Pad12)*%
X193611947Y-110438105D03*
X201549002Y-102679499D03*
%TO.N,TST_SBWTCK*%
X207073500Y-96647000D03*
%TO.N,RST_SBWTDIO*%
X207948079Y-97415293D03*
%TO.N,I2C_SDA*%
X200315990Y-109299580D03*
X200787004Y-100647500D03*
X200025000Y-102997000D03*
%TO.N,I2C_SLC*%
X198780936Y-100609936D03*
X193573366Y-109438837D03*
%TO.N,Net-(R3-Pad2)*%
X199705281Y-117596959D03*
X193738500Y-108331000D03*
%TO.N,Net-(SW1-Pad1)*%
X200025000Y-99695000D03*
%TO.N,Net-(SW2-Pad1)*%
X201168000Y-99475010D03*
%TO.N,Net-(SW3-Pad1)*%
X214572457Y-117998293D03*
X205994000Y-96647000D03*
%TO.N,Net-(SW4-Pad1)*%
X217868500Y-115379500D03*
X208752830Y-96821660D03*
%TO.N,Net-(SW5-Pad1)*%
X204152500Y-96837500D03*
%TD*%
D17*
%TO.N,+3V0*%
X196550000Y-113873000D02*
X198120000Y-115443000D01*
X196550000Y-109500000D02*
X196550000Y-113873000D01*
X218450000Y-106670000D02*
X219202000Y-105918000D01*
X218450000Y-109500000D02*
X218450000Y-106670000D01*
X195516500Y-105166500D02*
X195516500Y-104267000D01*
X196550000Y-109500000D02*
X196550000Y-106200000D01*
X196550000Y-106200000D02*
X195516500Y-105166500D01*
%TO.N,GND*%
X207518000Y-109482000D02*
X207518000Y-102806500D01*
D18*
X207500000Y-109500000D02*
X207518000Y-109482000D01*
D17*
X211620000Y-113620000D02*
X207500000Y-109500000D01*
X211620000Y-121750000D02*
X211620000Y-113620000D01*
X217022001Y-104500001D02*
X217297000Y-104775000D01*
X212499999Y-104500001D02*
X217022001Y-104500001D01*
X207500000Y-109500000D02*
X212499999Y-104500001D01*
D18*
%TO.N,Net-(DISP1-Pad12)*%
X194754500Y-103886000D02*
X197294500Y-101346000D01*
X194754500Y-109295552D02*
X194754500Y-103886000D01*
X193611947Y-110438105D02*
X194754500Y-109295552D01*
X197294500Y-101346000D02*
X200215503Y-101346000D01*
X200215503Y-101346000D02*
X201549002Y-102679499D01*
%TO.N,RST_SBWTDIO*%
X198232511Y-111112398D02*
X208870113Y-121750000D01*
X200787000Y-102685998D02*
X200373001Y-102271999D01*
X208870113Y-121750000D02*
X209080000Y-121750000D01*
X200787000Y-102990499D02*
X200787000Y-102685998D01*
X200373001Y-102271999D02*
X199676999Y-102271999D01*
X201201001Y-103404500D02*
X200787000Y-102990499D01*
X201897003Y-103404500D02*
X201201001Y-103404500D01*
X198232511Y-103716487D02*
X198232511Y-111112398D01*
X202274003Y-103027500D02*
X201897003Y-103404500D01*
X199676999Y-102271999D02*
X198232511Y-103716487D01*
X202274003Y-102331498D02*
X202274003Y-103027500D01*
X207190208Y-97415293D02*
X202274003Y-102331498D01*
X207948079Y-97415293D02*
X207190208Y-97415293D01*
%TO.N,I2C_SDA*%
X200315990Y-103287990D02*
X200025000Y-102997000D01*
X200315990Y-109299580D02*
X200315990Y-103287990D01*
%TO.N,Net-(SW2-Pad1)*%
X212502646Y-99536146D02*
X217547064Y-99536146D01*
X208876966Y-95910466D02*
X212502646Y-99536146D01*
X205549500Y-95910466D02*
X208876966Y-95910466D01*
X204978000Y-96481966D02*
X205549500Y-95910466D01*
X204978000Y-97599500D02*
X204978000Y-96481966D01*
X203102490Y-99475010D02*
X204978000Y-97599500D01*
X201168000Y-99475010D02*
X203102490Y-99475010D01*
%TD*%
M02*
