%TF.GenerationSoftware,KiCad,Pcbnew,5.1.9-73d0e3b20d~88~ubuntu20.04.1*%
%TF.CreationDate,2021-06-28T21:50:03+02:00*%
%TF.ProjectId,watch,77617463-682e-46b6-9963-61645f706362,rev?*%
%TF.SameCoordinates,Original*%
%TF.FileFunction,Copper,L2,Inr*%
%TF.FilePolarity,Positive*%
%FSLAX46Y46*%
G04 Gerber Fmt 4.6, Leading zero omitted, Abs format (unit mm)*
G04 Created by KiCad (PCBNEW 5.1.9-73d0e3b20d~88~ubuntu20.04.1) date 2021-06-28 21:50:03*
%MOMM*%
%LPD*%
G01*
G04 APERTURE LIST*
%TA.AperFunction,ComponentPad*%
%ADD10C,2.600000*%
%TD*%
%TA.AperFunction,ComponentPad*%
%ADD11O,1.700000X1.700000*%
%TD*%
%TA.AperFunction,ComponentPad*%
%ADD12R,1.700000X1.700000*%
%TD*%
%TA.AperFunction,ViaPad*%
%ADD13C,0.800000*%
%TD*%
%TA.AperFunction,Conductor*%
%ADD14C,0.750000*%
%TD*%
%TA.AperFunction,Conductor*%
%ADD15C,0.250000*%
%TD*%
G04 APERTURE END LIST*
D10*
%TO.N,Net-(SW1-Pad1)*%
%TO.C,SW1*%
X193500000Y-113250000D03*
%TD*%
D11*
%TO.N,GND*%
%TO.C,J1*%
X211620000Y-121750000D03*
%TO.N,RST_SBWTDIO*%
X209080000Y-121750000D03*
%TO.N,TST_SBWTCK*%
X206540000Y-121750000D03*
D12*
%TO.N,Net-(D1-Pad2)*%
X204000000Y-121750000D03*
%TD*%
D10*
%TO.N,Net-(SW5-Pad1)*%
%TO.C,SW5*%
X220640000Y-103380000D03*
%TD*%
%TO.N,Net-(SW4-Pad1)*%
%TO.C,SW4*%
X220640000Y-115620000D03*
%TD*%
%TO.N,Net-(SW3-Pad1)*%
%TO.C,SW3*%
X217750000Y-119750000D03*
%TD*%
%TO.N,Net-(SW2-Pad1)*%
%TO.C,SW2*%
X217750000Y-99250000D03*
%TD*%
D13*
%TO.N,+3V0*%
X198120000Y-115443000D03*
X219202000Y-105918000D03*
X195516500Y-104267000D03*
X208253490Y-98488501D03*
%TO.N,GND*%
X207518000Y-102806500D03*
X217297000Y-104775000D03*
X197507510Y-105933431D03*
%TO.N,Net-(DISP1-Pad8)*%
X200315990Y-110299593D03*
X211306403Y-102759674D03*
%TO.N,Net-(DISP1-Pad9)*%
X198882000Y-119570500D03*
X210132466Y-102906041D03*
%TO.N,Net-(DISP1-Pad4)*%
X199009000Y-106680000D03*
X208978500Y-116713000D03*
%TO.N,Net-(DISP1-Pad5)*%
X210502500Y-119697500D03*
X199685055Y-111491940D03*
%TO.N,Net-(DISP1-Pad11)*%
X200025001Y-120268999D03*
X203290000Y-102429491D03*
%TO.N,Net-(DISP1-Pad6)*%
X212725006Y-118999000D03*
X199009000Y-105664000D03*
%TO.N,Net-(DISP1-Pad12)*%
X193611947Y-110438105D03*
X201549002Y-102679499D03*
%TO.N,TST_SBWTCK*%
X207073500Y-96647000D03*
%TO.N,RST_SBWTDIO*%
X207948079Y-97415293D03*
%TO.N,I2C_SDA*%
X200315990Y-109299580D03*
X200787004Y-100647500D03*
X200025000Y-102997000D03*
%TO.N,I2C_SLC*%
X198780936Y-100609936D03*
X193573366Y-109438837D03*
%TO.N,Net-(R3-Pad2)*%
X199705281Y-117596959D03*
X193738500Y-108331000D03*
%TO.N,Net-(SW1-Pad1)*%
X200025000Y-99695000D03*
%TO.N,Net-(SW2-Pad1)*%
X201168000Y-99475010D03*
%TO.N,Net-(SW3-Pad1)*%
X214572457Y-117998293D03*
X205994000Y-96647000D03*
%TO.N,Net-(SW4-Pad1)*%
X217868500Y-115379500D03*
X208752830Y-96821660D03*
%TO.N,Net-(SW5-Pad1)*%
X204152500Y-96837500D03*
%TD*%
D14*
%TO.N,+3V0*%
X208490785Y-98488501D02*
X208253490Y-98488501D01*
X215920284Y-105918000D02*
X208490785Y-98488501D01*
X219202000Y-105918000D02*
X215920284Y-105918000D01*
X199453499Y-98488501D02*
X208253490Y-98488501D01*
X197739000Y-100203000D02*
X199453499Y-98488501D01*
X197739000Y-101663500D02*
X197739000Y-100203000D01*
X195516500Y-103886000D02*
X197739000Y-101663500D01*
X195516500Y-104267000D02*
X195516500Y-103886000D01*
%TO.N,GND*%
X197507510Y-105367746D02*
X197507510Y-105933431D01*
X206184500Y-104140000D02*
X198735256Y-104140000D01*
X198735256Y-104140000D02*
X197507510Y-105367746D01*
X207518000Y-102806500D02*
X206184500Y-104140000D01*
D15*
%TO.N,Net-(DISP1-Pad9)*%
X198882000Y-119570500D02*
X200430282Y-118022218D01*
X200430282Y-118022218D02*
X200430282Y-114260782D01*
X200430282Y-114260782D02*
X196215000Y-110045500D01*
X196215000Y-110045500D02*
X196215000Y-104521000D01*
X196215000Y-104521000D02*
X199326500Y-101409500D01*
X199326500Y-101409500D02*
X208635925Y-101409500D01*
X208635925Y-101409500D02*
X210132466Y-102906041D01*
%TO.N,Net-(DISP1-Pad4)*%
X199009000Y-106680000D02*
X208978500Y-116649500D01*
X208978500Y-116649500D02*
X208978500Y-116713000D01*
%TO.N,Net-(DISP1-Pad5)*%
X202296940Y-111491940D02*
X209740500Y-118935500D01*
X209740500Y-118935500D02*
X210502500Y-119697500D01*
X199685055Y-111491940D02*
X202296940Y-111491940D01*
%TO.N,Net-(DISP1-Pad11)*%
X196723000Y-109598179D02*
X196723000Y-104844998D01*
X201104500Y-119189500D02*
X201104500Y-113979679D01*
X199613501Y-101954497D02*
X202815006Y-101954497D01*
X196723000Y-104844998D02*
X199613501Y-101954497D01*
X201104500Y-113979679D02*
X196723000Y-109598179D01*
X202815006Y-101954497D02*
X203290000Y-102429491D01*
X200025001Y-120268999D02*
X201104500Y-119189500D01*
%TO.N,Net-(DISP1-Pad6)*%
X199961500Y-105664000D02*
X199009000Y-105664000D01*
X212725006Y-118427506D02*
X199961500Y-105664000D01*
X212725006Y-118999000D02*
X212725006Y-118427506D01*
%TO.N,Net-(R3-Pad2)*%
X193738500Y-108458000D02*
X193738500Y-108331000D01*
X199707500Y-114427000D02*
X193738500Y-108458000D01*
X199707500Y-117594740D02*
X199707500Y-114427000D01*
X199705281Y-117596959D02*
X199707500Y-117594740D01*
%TO.N,Net-(SW5-Pad1)*%
X205079534Y-95910466D02*
X204152500Y-96837500D01*
X217529955Y-103420455D02*
X210019966Y-95910466D01*
X210019966Y-95910466D02*
X205079534Y-95910466D01*
X220553142Y-103420455D02*
X217529955Y-103420455D01*
%TD*%
M02*
