%TF.GenerationSoftware,KiCad,Pcbnew,5.1.9-73d0e3b20d~88~ubuntu20.04.1*%
%TF.CreationDate,2021-06-28T21:50:03+02:00*%
%TF.ProjectId,watch,77617463-682e-46b6-9963-61645f706362,rev?*%
%TF.SameCoordinates,Original*%
%TF.FileFunction,Legend,Bot*%
%TF.FilePolarity,Positive*%
%FSLAX46Y46*%
G04 Gerber Fmt 4.6, Leading zero omitted, Abs format (unit mm)*
G04 Created by KiCad (PCBNEW 5.1.9-73d0e3b20d~88~ubuntu20.04.1) date 2021-06-28 21:50:03*
%MOMM*%
%LPD*%
G01*
G04 APERTURE LIST*
%ADD10C,0.120000*%
%ADD11C,0.127000*%
%ADD12C,0.150000*%
%ADD13C,3.800000*%
%ADD14C,2.600000*%
%ADD15R,1.500000X5.100000*%
%ADD16C,13.000000*%
%ADD17O,1.700000X1.700000*%
%ADD18R,1.700000X1.700000*%
G04 APERTURE END LIST*
D10*
X217511940Y-109474000D02*
G75*
G03*
X217511940Y-109474000I-9993940J0D01*
G01*
D11*
%TO.C,BT1*%
X218050000Y-101550000D02*
X218050000Y-106630000D01*
X213000000Y-101550000D02*
X218050000Y-101550000D01*
X196950000Y-101550000D02*
X202000000Y-101550000D01*
X196950000Y-106630000D02*
X196950000Y-101550000D01*
X218050000Y-117050000D02*
X218050000Y-112370000D01*
X213500000Y-117050000D02*
X218050000Y-117050000D01*
X196950000Y-117050000D02*
X201500000Y-117050000D01*
X196950000Y-112370000D02*
X196950000Y-117050000D01*
D10*
%TO.C,J1*%
X205270000Y-120420000D02*
X205270000Y-123080000D01*
X205270000Y-120420000D02*
X212950000Y-120420000D01*
X212950000Y-120420000D02*
X212950000Y-123080000D01*
X205270000Y-123080000D02*
X212950000Y-123080000D01*
X202670000Y-123080000D02*
X204000000Y-123080000D01*
X202670000Y-121750000D02*
X202670000Y-123080000D01*
D12*
X201691833Y-120673880D02*
X201691833Y-121388166D01*
X201739452Y-121531023D01*
X201834690Y-121626261D01*
X201977547Y-121673880D01*
X202072785Y-121673880D01*
X200691833Y-121673880D02*
X201263261Y-121673880D01*
X200977547Y-121673880D02*
X200977547Y-120673880D01*
X201072785Y-120816738D01*
X201168023Y-120911976D01*
X201263261Y-120959595D01*
%TD*%
%LPC*%
D13*
%TO.C,SW1*%
X193500000Y-113250000D03*
D14*
X193500000Y-113250000D03*
%TD*%
D15*
%TO.C,BT1*%
X218450000Y-109500000D03*
X196550000Y-109500000D03*
D16*
X207500000Y-109500000D03*
%TD*%
D17*
%TO.C,J1*%
X211620000Y-121750000D03*
X209080000Y-121750000D03*
X206540000Y-121750000D03*
D18*
X204000000Y-121750000D03*
%TD*%
D14*
%TO.C,SW5*%
X220640000Y-103380000D03*
D13*
X220640000Y-103380000D03*
%TD*%
D14*
%TO.C,SW4*%
X220640000Y-115620000D03*
D13*
X220640000Y-115620000D03*
%TD*%
D14*
%TO.C,SW3*%
X217750000Y-119750000D03*
D13*
X217750000Y-119750000D03*
%TD*%
D14*
%TO.C,SW2*%
X217750000Y-99250000D03*
D13*
X217750000Y-99250000D03*
%TD*%
M02*
