%TF.GenerationSoftware,KiCad,Pcbnew,5.1.9-73d0e3b20d~88~ubuntu20.04.1*%
%TF.CreationDate,2021-06-28T21:50:03+02:00*%
%TF.ProjectId,watch,77617463-682e-46b6-9963-61645f706362,rev?*%
%TF.SameCoordinates,Original*%
%TF.FileFunction,Paste,Top*%
%TF.FilePolarity,Positive*%
%FSLAX46Y46*%
G04 Gerber Fmt 4.6, Leading zero omitted, Abs format (unit mm)*
G04 Created by KiCad (PCBNEW 5.1.9-73d0e3b20d~88~ubuntu20.04.1) date 2021-06-28 21:50:03*
%MOMM*%
%LPD*%
G01*
G04 APERTURE LIST*
%ADD10R,1.750000X1.800000*%
%ADD11R,1.600000X3.100000*%
%ADD12R,1.000000X1.000000*%
G04 APERTURE END LIST*
D10*
%TO.C,Y1*%
X209856000Y-100838000D03*
X213106000Y-100838000D03*
%TD*%
%TO.C,U1*%
G36*
G01*
X196029999Y-109380000D02*
X196620001Y-109380000D01*
G75*
G02*
X196870000Y-109629999I0J-249999D01*
G01*
X196870000Y-110220001D01*
G75*
G02*
X196620001Y-110470000I-249999J0D01*
G01*
X196029999Y-110470000D01*
G75*
G02*
X195780000Y-110220001I0J249999D01*
G01*
X195780000Y-109629999D01*
G75*
G02*
X196029999Y-109380000I249999J0D01*
G01*
G37*
G36*
G01*
X197379999Y-109380000D02*
X197970001Y-109380000D01*
G75*
G02*
X198220000Y-109629999I0J-249999D01*
G01*
X198220000Y-110220001D01*
G75*
G02*
X197970001Y-110470000I-249999J0D01*
G01*
X197379999Y-110470000D01*
G75*
G02*
X197130000Y-110220001I0J249999D01*
G01*
X197130000Y-109629999D01*
G75*
G02*
X197379999Y-109380000I249999J0D01*
G01*
G37*
G36*
G01*
X196029999Y-108030000D02*
X196620001Y-108030000D01*
G75*
G02*
X196870000Y-108279999I0J-249999D01*
G01*
X196870000Y-108870001D01*
G75*
G02*
X196620001Y-109120000I-249999J0D01*
G01*
X196029999Y-109120000D01*
G75*
G02*
X195780000Y-108870001I0J249999D01*
G01*
X195780000Y-108279999D01*
G75*
G02*
X196029999Y-108030000I249999J0D01*
G01*
G37*
G36*
G01*
X197379999Y-108030000D02*
X197970001Y-108030000D01*
G75*
G02*
X198220000Y-108279999I0J-249999D01*
G01*
X198220000Y-108870001D01*
G75*
G02*
X197970001Y-109120000I-249999J0D01*
G01*
X197379999Y-109120000D01*
G75*
G02*
X197130000Y-108870001I0J249999D01*
G01*
X197130000Y-108279999D01*
G75*
G02*
X197379999Y-108030000I249999J0D01*
G01*
G37*
G36*
G01*
X198612500Y-107875000D02*
X199312500Y-107875000D01*
G75*
G02*
X199375000Y-107937500I0J-62500D01*
G01*
X199375000Y-108062500D01*
G75*
G02*
X199312500Y-108125000I-62500J0D01*
G01*
X198612500Y-108125000D01*
G75*
G02*
X198550000Y-108062500I0J62500D01*
G01*
X198550000Y-107937500D01*
G75*
G02*
X198612500Y-107875000I62500J0D01*
G01*
G37*
G36*
G01*
X198612500Y-108375000D02*
X199312500Y-108375000D01*
G75*
G02*
X199375000Y-108437500I0J-62500D01*
G01*
X199375000Y-108562500D01*
G75*
G02*
X199312500Y-108625000I-62500J0D01*
G01*
X198612500Y-108625000D01*
G75*
G02*
X198550000Y-108562500I0J62500D01*
G01*
X198550000Y-108437500D01*
G75*
G02*
X198612500Y-108375000I62500J0D01*
G01*
G37*
G36*
G01*
X198612500Y-108875000D02*
X199312500Y-108875000D01*
G75*
G02*
X199375000Y-108937500I0J-62500D01*
G01*
X199375000Y-109062500D01*
G75*
G02*
X199312500Y-109125000I-62500J0D01*
G01*
X198612500Y-109125000D01*
G75*
G02*
X198550000Y-109062500I0J62500D01*
G01*
X198550000Y-108937500D01*
G75*
G02*
X198612500Y-108875000I62500J0D01*
G01*
G37*
G36*
G01*
X198612500Y-109375000D02*
X199312500Y-109375000D01*
G75*
G02*
X199375000Y-109437500I0J-62500D01*
G01*
X199375000Y-109562500D01*
G75*
G02*
X199312500Y-109625000I-62500J0D01*
G01*
X198612500Y-109625000D01*
G75*
G02*
X198550000Y-109562500I0J62500D01*
G01*
X198550000Y-109437500D01*
G75*
G02*
X198612500Y-109375000I62500J0D01*
G01*
G37*
G36*
G01*
X198612500Y-109875000D02*
X199312500Y-109875000D01*
G75*
G02*
X199375000Y-109937500I0J-62500D01*
G01*
X199375000Y-110062500D01*
G75*
G02*
X199312500Y-110125000I-62500J0D01*
G01*
X198612500Y-110125000D01*
G75*
G02*
X198550000Y-110062500I0J62500D01*
G01*
X198550000Y-109937500D01*
G75*
G02*
X198612500Y-109875000I62500J0D01*
G01*
G37*
G36*
G01*
X198612500Y-110375000D02*
X199312500Y-110375000D01*
G75*
G02*
X199375000Y-110437500I0J-62500D01*
G01*
X199375000Y-110562500D01*
G75*
G02*
X199312500Y-110625000I-62500J0D01*
G01*
X198612500Y-110625000D01*
G75*
G02*
X198550000Y-110562500I0J62500D01*
G01*
X198550000Y-110437500D01*
G75*
G02*
X198612500Y-110375000I62500J0D01*
G01*
G37*
G36*
G01*
X198187500Y-110800000D02*
X198312500Y-110800000D01*
G75*
G02*
X198375000Y-110862500I0J-62500D01*
G01*
X198375000Y-111562500D01*
G75*
G02*
X198312500Y-111625000I-62500J0D01*
G01*
X198187500Y-111625000D01*
G75*
G02*
X198125000Y-111562500I0J62500D01*
G01*
X198125000Y-110862500D01*
G75*
G02*
X198187500Y-110800000I62500J0D01*
G01*
G37*
G36*
G01*
X197687500Y-110800000D02*
X197812500Y-110800000D01*
G75*
G02*
X197875000Y-110862500I0J-62500D01*
G01*
X197875000Y-111562500D01*
G75*
G02*
X197812500Y-111625000I-62500J0D01*
G01*
X197687500Y-111625000D01*
G75*
G02*
X197625000Y-111562500I0J62500D01*
G01*
X197625000Y-110862500D01*
G75*
G02*
X197687500Y-110800000I62500J0D01*
G01*
G37*
G36*
G01*
X197187500Y-110800000D02*
X197312500Y-110800000D01*
G75*
G02*
X197375000Y-110862500I0J-62500D01*
G01*
X197375000Y-111562500D01*
G75*
G02*
X197312500Y-111625000I-62500J0D01*
G01*
X197187500Y-111625000D01*
G75*
G02*
X197125000Y-111562500I0J62500D01*
G01*
X197125000Y-110862500D01*
G75*
G02*
X197187500Y-110800000I62500J0D01*
G01*
G37*
G36*
G01*
X196687500Y-110800000D02*
X196812500Y-110800000D01*
G75*
G02*
X196875000Y-110862500I0J-62500D01*
G01*
X196875000Y-111562500D01*
G75*
G02*
X196812500Y-111625000I-62500J0D01*
G01*
X196687500Y-111625000D01*
G75*
G02*
X196625000Y-111562500I0J62500D01*
G01*
X196625000Y-110862500D01*
G75*
G02*
X196687500Y-110800000I62500J0D01*
G01*
G37*
G36*
G01*
X196187500Y-110800000D02*
X196312500Y-110800000D01*
G75*
G02*
X196375000Y-110862500I0J-62500D01*
G01*
X196375000Y-111562500D01*
G75*
G02*
X196312500Y-111625000I-62500J0D01*
G01*
X196187500Y-111625000D01*
G75*
G02*
X196125000Y-111562500I0J62500D01*
G01*
X196125000Y-110862500D01*
G75*
G02*
X196187500Y-110800000I62500J0D01*
G01*
G37*
G36*
G01*
X195687500Y-110800000D02*
X195812500Y-110800000D01*
G75*
G02*
X195875000Y-110862500I0J-62500D01*
G01*
X195875000Y-111562500D01*
G75*
G02*
X195812500Y-111625000I-62500J0D01*
G01*
X195687500Y-111625000D01*
G75*
G02*
X195625000Y-111562500I0J62500D01*
G01*
X195625000Y-110862500D01*
G75*
G02*
X195687500Y-110800000I62500J0D01*
G01*
G37*
G36*
G01*
X194687500Y-110375000D02*
X195387500Y-110375000D01*
G75*
G02*
X195450000Y-110437500I0J-62500D01*
G01*
X195450000Y-110562500D01*
G75*
G02*
X195387500Y-110625000I-62500J0D01*
G01*
X194687500Y-110625000D01*
G75*
G02*
X194625000Y-110562500I0J62500D01*
G01*
X194625000Y-110437500D01*
G75*
G02*
X194687500Y-110375000I62500J0D01*
G01*
G37*
G36*
G01*
X194687500Y-109875000D02*
X195387500Y-109875000D01*
G75*
G02*
X195450000Y-109937500I0J-62500D01*
G01*
X195450000Y-110062500D01*
G75*
G02*
X195387500Y-110125000I-62500J0D01*
G01*
X194687500Y-110125000D01*
G75*
G02*
X194625000Y-110062500I0J62500D01*
G01*
X194625000Y-109937500D01*
G75*
G02*
X194687500Y-109875000I62500J0D01*
G01*
G37*
G36*
G01*
X194687500Y-109375000D02*
X195387500Y-109375000D01*
G75*
G02*
X195450000Y-109437500I0J-62500D01*
G01*
X195450000Y-109562500D01*
G75*
G02*
X195387500Y-109625000I-62500J0D01*
G01*
X194687500Y-109625000D01*
G75*
G02*
X194625000Y-109562500I0J62500D01*
G01*
X194625000Y-109437500D01*
G75*
G02*
X194687500Y-109375000I62500J0D01*
G01*
G37*
G36*
G01*
X194687500Y-108875000D02*
X195387500Y-108875000D01*
G75*
G02*
X195450000Y-108937500I0J-62500D01*
G01*
X195450000Y-109062500D01*
G75*
G02*
X195387500Y-109125000I-62500J0D01*
G01*
X194687500Y-109125000D01*
G75*
G02*
X194625000Y-109062500I0J62500D01*
G01*
X194625000Y-108937500D01*
G75*
G02*
X194687500Y-108875000I62500J0D01*
G01*
G37*
G36*
G01*
X194687500Y-108375000D02*
X195387500Y-108375000D01*
G75*
G02*
X195450000Y-108437500I0J-62500D01*
G01*
X195450000Y-108562500D01*
G75*
G02*
X195387500Y-108625000I-62500J0D01*
G01*
X194687500Y-108625000D01*
G75*
G02*
X194625000Y-108562500I0J62500D01*
G01*
X194625000Y-108437500D01*
G75*
G02*
X194687500Y-108375000I62500J0D01*
G01*
G37*
G36*
G01*
X194687500Y-107875000D02*
X195387500Y-107875000D01*
G75*
G02*
X195450000Y-107937500I0J-62500D01*
G01*
X195450000Y-108062500D01*
G75*
G02*
X195387500Y-108125000I-62500J0D01*
G01*
X194687500Y-108125000D01*
G75*
G02*
X194625000Y-108062500I0J62500D01*
G01*
X194625000Y-107937500D01*
G75*
G02*
X194687500Y-107875000I62500J0D01*
G01*
G37*
G36*
G01*
X195687500Y-106875000D02*
X195812500Y-106875000D01*
G75*
G02*
X195875000Y-106937500I0J-62500D01*
G01*
X195875000Y-107637500D01*
G75*
G02*
X195812500Y-107700000I-62500J0D01*
G01*
X195687500Y-107700000D01*
G75*
G02*
X195625000Y-107637500I0J62500D01*
G01*
X195625000Y-106937500D01*
G75*
G02*
X195687500Y-106875000I62500J0D01*
G01*
G37*
G36*
G01*
X196187500Y-106875000D02*
X196312500Y-106875000D01*
G75*
G02*
X196375000Y-106937500I0J-62500D01*
G01*
X196375000Y-107637500D01*
G75*
G02*
X196312500Y-107700000I-62500J0D01*
G01*
X196187500Y-107700000D01*
G75*
G02*
X196125000Y-107637500I0J62500D01*
G01*
X196125000Y-106937500D01*
G75*
G02*
X196187500Y-106875000I62500J0D01*
G01*
G37*
G36*
G01*
X196687500Y-106875000D02*
X196812500Y-106875000D01*
G75*
G02*
X196875000Y-106937500I0J-62500D01*
G01*
X196875000Y-107637500D01*
G75*
G02*
X196812500Y-107700000I-62500J0D01*
G01*
X196687500Y-107700000D01*
G75*
G02*
X196625000Y-107637500I0J62500D01*
G01*
X196625000Y-106937500D01*
G75*
G02*
X196687500Y-106875000I62500J0D01*
G01*
G37*
G36*
G01*
X197187500Y-106875000D02*
X197312500Y-106875000D01*
G75*
G02*
X197375000Y-106937500I0J-62500D01*
G01*
X197375000Y-107637500D01*
G75*
G02*
X197312500Y-107700000I-62500J0D01*
G01*
X197187500Y-107700000D01*
G75*
G02*
X197125000Y-107637500I0J62500D01*
G01*
X197125000Y-106937500D01*
G75*
G02*
X197187500Y-106875000I62500J0D01*
G01*
G37*
G36*
G01*
X197687500Y-106875000D02*
X197812500Y-106875000D01*
G75*
G02*
X197875000Y-106937500I0J-62500D01*
G01*
X197875000Y-107637500D01*
G75*
G02*
X197812500Y-107700000I-62500J0D01*
G01*
X197687500Y-107700000D01*
G75*
G02*
X197625000Y-107637500I0J62500D01*
G01*
X197625000Y-106937500D01*
G75*
G02*
X197687500Y-106875000I62500J0D01*
G01*
G37*
G36*
G01*
X198187500Y-106875000D02*
X198312500Y-106875000D01*
G75*
G02*
X198375000Y-106937500I0J-62500D01*
G01*
X198375000Y-107637500D01*
G75*
G02*
X198312500Y-107700000I-62500J0D01*
G01*
X198187500Y-107700000D01*
G75*
G02*
X198125000Y-107637500I0J62500D01*
G01*
X198125000Y-106937500D01*
G75*
G02*
X198187500Y-106875000I62500J0D01*
G01*
G37*
%TD*%
D11*
%TO.C,Elektronika-1*%
X201150000Y-113945000D03*
X213850000Y-105055000D03*
X203690000Y-113945000D03*
X211310000Y-105055000D03*
X206230000Y-113945000D03*
X208770000Y-105055000D03*
X208770000Y-113945000D03*
X206230000Y-105055000D03*
X211310000Y-113945000D03*
X203690000Y-105055000D03*
X213850000Y-113945000D03*
X201150000Y-105055000D03*
%TD*%
%TO.C,U2*%
G36*
G01*
X204529999Y-100130000D02*
X205120001Y-100130000D01*
G75*
G02*
X205370000Y-100379999I0J-249999D01*
G01*
X205370000Y-100970001D01*
G75*
G02*
X205120001Y-101220000I-249999J0D01*
G01*
X204529999Y-101220000D01*
G75*
G02*
X204280000Y-100970001I0J249999D01*
G01*
X204280000Y-100379999D01*
G75*
G02*
X204529999Y-100130000I249999J0D01*
G01*
G37*
G36*
G01*
X205879999Y-100130000D02*
X206470001Y-100130000D01*
G75*
G02*
X206720000Y-100379999I0J-249999D01*
G01*
X206720000Y-100970001D01*
G75*
G02*
X206470001Y-101220000I-249999J0D01*
G01*
X205879999Y-101220000D01*
G75*
G02*
X205630000Y-100970001I0J249999D01*
G01*
X205630000Y-100379999D01*
G75*
G02*
X205879999Y-100130000I249999J0D01*
G01*
G37*
G36*
G01*
X204529999Y-98780000D02*
X205120001Y-98780000D01*
G75*
G02*
X205370000Y-99029999I0J-249999D01*
G01*
X205370000Y-99620001D01*
G75*
G02*
X205120001Y-99870000I-249999J0D01*
G01*
X204529999Y-99870000D01*
G75*
G02*
X204280000Y-99620001I0J249999D01*
G01*
X204280000Y-99029999D01*
G75*
G02*
X204529999Y-98780000I249999J0D01*
G01*
G37*
G36*
G01*
X205879999Y-98780000D02*
X206470001Y-98780000D01*
G75*
G02*
X206720000Y-99029999I0J-249999D01*
G01*
X206720000Y-99620001D01*
G75*
G02*
X206470001Y-99870000I-249999J0D01*
G01*
X205879999Y-99870000D01*
G75*
G02*
X205630000Y-99620001I0J249999D01*
G01*
X205630000Y-99029999D01*
G75*
G02*
X205879999Y-98780000I249999J0D01*
G01*
G37*
G36*
G01*
X207112500Y-98625000D02*
X207812500Y-98625000D01*
G75*
G02*
X207875000Y-98687500I0J-62500D01*
G01*
X207875000Y-98812500D01*
G75*
G02*
X207812500Y-98875000I-62500J0D01*
G01*
X207112500Y-98875000D01*
G75*
G02*
X207050000Y-98812500I0J62500D01*
G01*
X207050000Y-98687500D01*
G75*
G02*
X207112500Y-98625000I62500J0D01*
G01*
G37*
G36*
G01*
X207112500Y-99125000D02*
X207812500Y-99125000D01*
G75*
G02*
X207875000Y-99187500I0J-62500D01*
G01*
X207875000Y-99312500D01*
G75*
G02*
X207812500Y-99375000I-62500J0D01*
G01*
X207112500Y-99375000D01*
G75*
G02*
X207050000Y-99312500I0J62500D01*
G01*
X207050000Y-99187500D01*
G75*
G02*
X207112500Y-99125000I62500J0D01*
G01*
G37*
G36*
G01*
X207112500Y-99625000D02*
X207812500Y-99625000D01*
G75*
G02*
X207875000Y-99687500I0J-62500D01*
G01*
X207875000Y-99812500D01*
G75*
G02*
X207812500Y-99875000I-62500J0D01*
G01*
X207112500Y-99875000D01*
G75*
G02*
X207050000Y-99812500I0J62500D01*
G01*
X207050000Y-99687500D01*
G75*
G02*
X207112500Y-99625000I62500J0D01*
G01*
G37*
G36*
G01*
X207112500Y-100125000D02*
X207812500Y-100125000D01*
G75*
G02*
X207875000Y-100187500I0J-62500D01*
G01*
X207875000Y-100312500D01*
G75*
G02*
X207812500Y-100375000I-62500J0D01*
G01*
X207112500Y-100375000D01*
G75*
G02*
X207050000Y-100312500I0J62500D01*
G01*
X207050000Y-100187500D01*
G75*
G02*
X207112500Y-100125000I62500J0D01*
G01*
G37*
G36*
G01*
X207112500Y-100625000D02*
X207812500Y-100625000D01*
G75*
G02*
X207875000Y-100687500I0J-62500D01*
G01*
X207875000Y-100812500D01*
G75*
G02*
X207812500Y-100875000I-62500J0D01*
G01*
X207112500Y-100875000D01*
G75*
G02*
X207050000Y-100812500I0J62500D01*
G01*
X207050000Y-100687500D01*
G75*
G02*
X207112500Y-100625000I62500J0D01*
G01*
G37*
G36*
G01*
X207112500Y-101125000D02*
X207812500Y-101125000D01*
G75*
G02*
X207875000Y-101187500I0J-62500D01*
G01*
X207875000Y-101312500D01*
G75*
G02*
X207812500Y-101375000I-62500J0D01*
G01*
X207112500Y-101375000D01*
G75*
G02*
X207050000Y-101312500I0J62500D01*
G01*
X207050000Y-101187500D01*
G75*
G02*
X207112500Y-101125000I62500J0D01*
G01*
G37*
G36*
G01*
X206687500Y-101550000D02*
X206812500Y-101550000D01*
G75*
G02*
X206875000Y-101612500I0J-62500D01*
G01*
X206875000Y-102312500D01*
G75*
G02*
X206812500Y-102375000I-62500J0D01*
G01*
X206687500Y-102375000D01*
G75*
G02*
X206625000Y-102312500I0J62500D01*
G01*
X206625000Y-101612500D01*
G75*
G02*
X206687500Y-101550000I62500J0D01*
G01*
G37*
G36*
G01*
X206187500Y-101550000D02*
X206312500Y-101550000D01*
G75*
G02*
X206375000Y-101612500I0J-62500D01*
G01*
X206375000Y-102312500D01*
G75*
G02*
X206312500Y-102375000I-62500J0D01*
G01*
X206187500Y-102375000D01*
G75*
G02*
X206125000Y-102312500I0J62500D01*
G01*
X206125000Y-101612500D01*
G75*
G02*
X206187500Y-101550000I62500J0D01*
G01*
G37*
G36*
G01*
X205687500Y-101550000D02*
X205812500Y-101550000D01*
G75*
G02*
X205875000Y-101612500I0J-62500D01*
G01*
X205875000Y-102312500D01*
G75*
G02*
X205812500Y-102375000I-62500J0D01*
G01*
X205687500Y-102375000D01*
G75*
G02*
X205625000Y-102312500I0J62500D01*
G01*
X205625000Y-101612500D01*
G75*
G02*
X205687500Y-101550000I62500J0D01*
G01*
G37*
G36*
G01*
X205187500Y-101550000D02*
X205312500Y-101550000D01*
G75*
G02*
X205375000Y-101612500I0J-62500D01*
G01*
X205375000Y-102312500D01*
G75*
G02*
X205312500Y-102375000I-62500J0D01*
G01*
X205187500Y-102375000D01*
G75*
G02*
X205125000Y-102312500I0J62500D01*
G01*
X205125000Y-101612500D01*
G75*
G02*
X205187500Y-101550000I62500J0D01*
G01*
G37*
G36*
G01*
X204687500Y-101550000D02*
X204812500Y-101550000D01*
G75*
G02*
X204875000Y-101612500I0J-62500D01*
G01*
X204875000Y-102312500D01*
G75*
G02*
X204812500Y-102375000I-62500J0D01*
G01*
X204687500Y-102375000D01*
G75*
G02*
X204625000Y-102312500I0J62500D01*
G01*
X204625000Y-101612500D01*
G75*
G02*
X204687500Y-101550000I62500J0D01*
G01*
G37*
G36*
G01*
X204187500Y-101550000D02*
X204312500Y-101550000D01*
G75*
G02*
X204375000Y-101612500I0J-62500D01*
G01*
X204375000Y-102312500D01*
G75*
G02*
X204312500Y-102375000I-62500J0D01*
G01*
X204187500Y-102375000D01*
G75*
G02*
X204125000Y-102312500I0J62500D01*
G01*
X204125000Y-101612500D01*
G75*
G02*
X204187500Y-101550000I62500J0D01*
G01*
G37*
G36*
G01*
X203187500Y-101125000D02*
X203887500Y-101125000D01*
G75*
G02*
X203950000Y-101187500I0J-62500D01*
G01*
X203950000Y-101312500D01*
G75*
G02*
X203887500Y-101375000I-62500J0D01*
G01*
X203187500Y-101375000D01*
G75*
G02*
X203125000Y-101312500I0J62500D01*
G01*
X203125000Y-101187500D01*
G75*
G02*
X203187500Y-101125000I62500J0D01*
G01*
G37*
G36*
G01*
X203187500Y-100625000D02*
X203887500Y-100625000D01*
G75*
G02*
X203950000Y-100687500I0J-62500D01*
G01*
X203950000Y-100812500D01*
G75*
G02*
X203887500Y-100875000I-62500J0D01*
G01*
X203187500Y-100875000D01*
G75*
G02*
X203125000Y-100812500I0J62500D01*
G01*
X203125000Y-100687500D01*
G75*
G02*
X203187500Y-100625000I62500J0D01*
G01*
G37*
G36*
G01*
X203187500Y-100125000D02*
X203887500Y-100125000D01*
G75*
G02*
X203950000Y-100187500I0J-62500D01*
G01*
X203950000Y-100312500D01*
G75*
G02*
X203887500Y-100375000I-62500J0D01*
G01*
X203187500Y-100375000D01*
G75*
G02*
X203125000Y-100312500I0J62500D01*
G01*
X203125000Y-100187500D01*
G75*
G02*
X203187500Y-100125000I62500J0D01*
G01*
G37*
G36*
G01*
X203187500Y-99625000D02*
X203887500Y-99625000D01*
G75*
G02*
X203950000Y-99687500I0J-62500D01*
G01*
X203950000Y-99812500D01*
G75*
G02*
X203887500Y-99875000I-62500J0D01*
G01*
X203187500Y-99875000D01*
G75*
G02*
X203125000Y-99812500I0J62500D01*
G01*
X203125000Y-99687500D01*
G75*
G02*
X203187500Y-99625000I62500J0D01*
G01*
G37*
G36*
G01*
X203187500Y-99125000D02*
X203887500Y-99125000D01*
G75*
G02*
X203950000Y-99187500I0J-62500D01*
G01*
X203950000Y-99312500D01*
G75*
G02*
X203887500Y-99375000I-62500J0D01*
G01*
X203187500Y-99375000D01*
G75*
G02*
X203125000Y-99312500I0J62500D01*
G01*
X203125000Y-99187500D01*
G75*
G02*
X203187500Y-99125000I62500J0D01*
G01*
G37*
G36*
G01*
X203187500Y-98625000D02*
X203887500Y-98625000D01*
G75*
G02*
X203950000Y-98687500I0J-62500D01*
G01*
X203950000Y-98812500D01*
G75*
G02*
X203887500Y-98875000I-62500J0D01*
G01*
X203187500Y-98875000D01*
G75*
G02*
X203125000Y-98812500I0J62500D01*
G01*
X203125000Y-98687500D01*
G75*
G02*
X203187500Y-98625000I62500J0D01*
G01*
G37*
G36*
G01*
X204187500Y-97625000D02*
X204312500Y-97625000D01*
G75*
G02*
X204375000Y-97687500I0J-62500D01*
G01*
X204375000Y-98387500D01*
G75*
G02*
X204312500Y-98450000I-62500J0D01*
G01*
X204187500Y-98450000D01*
G75*
G02*
X204125000Y-98387500I0J62500D01*
G01*
X204125000Y-97687500D01*
G75*
G02*
X204187500Y-97625000I62500J0D01*
G01*
G37*
G36*
G01*
X204687500Y-97625000D02*
X204812500Y-97625000D01*
G75*
G02*
X204875000Y-97687500I0J-62500D01*
G01*
X204875000Y-98387500D01*
G75*
G02*
X204812500Y-98450000I-62500J0D01*
G01*
X204687500Y-98450000D01*
G75*
G02*
X204625000Y-98387500I0J62500D01*
G01*
X204625000Y-97687500D01*
G75*
G02*
X204687500Y-97625000I62500J0D01*
G01*
G37*
G36*
G01*
X205187500Y-97625000D02*
X205312500Y-97625000D01*
G75*
G02*
X205375000Y-97687500I0J-62500D01*
G01*
X205375000Y-98387500D01*
G75*
G02*
X205312500Y-98450000I-62500J0D01*
G01*
X205187500Y-98450000D01*
G75*
G02*
X205125000Y-98387500I0J62500D01*
G01*
X205125000Y-97687500D01*
G75*
G02*
X205187500Y-97625000I62500J0D01*
G01*
G37*
G36*
G01*
X205687500Y-97625000D02*
X205812500Y-97625000D01*
G75*
G02*
X205875000Y-97687500I0J-62500D01*
G01*
X205875000Y-98387500D01*
G75*
G02*
X205812500Y-98450000I-62500J0D01*
G01*
X205687500Y-98450000D01*
G75*
G02*
X205625000Y-98387500I0J62500D01*
G01*
X205625000Y-97687500D01*
G75*
G02*
X205687500Y-97625000I62500J0D01*
G01*
G37*
G36*
G01*
X206187500Y-97625000D02*
X206312500Y-97625000D01*
G75*
G02*
X206375000Y-97687500I0J-62500D01*
G01*
X206375000Y-98387500D01*
G75*
G02*
X206312500Y-98450000I-62500J0D01*
G01*
X206187500Y-98450000D01*
G75*
G02*
X206125000Y-98387500I0J62500D01*
G01*
X206125000Y-97687500D01*
G75*
G02*
X206187500Y-97625000I62500J0D01*
G01*
G37*
G36*
G01*
X206687500Y-97625000D02*
X206812500Y-97625000D01*
G75*
G02*
X206875000Y-97687500I0J-62500D01*
G01*
X206875000Y-98387500D01*
G75*
G02*
X206812500Y-98450000I-62500J0D01*
G01*
X206687500Y-98450000D01*
G75*
G02*
X206625000Y-98387500I0J62500D01*
G01*
X206625000Y-97687500D01*
G75*
G02*
X206687500Y-97625000I62500J0D01*
G01*
G37*
%TD*%
%TO.C,C1*%
G36*
G01*
X218482500Y-111025000D02*
X218482500Y-111975000D01*
G75*
G02*
X218232500Y-112225000I-250000J0D01*
G01*
X217557500Y-112225000D01*
G75*
G02*
X217307500Y-111975000I0J250000D01*
G01*
X217307500Y-111025000D01*
G75*
G02*
X217557500Y-110775000I250000J0D01*
G01*
X218232500Y-110775000D01*
G75*
G02*
X218482500Y-111025000I0J-250000D01*
G01*
G37*
G36*
G01*
X220557500Y-111025000D02*
X220557500Y-111975000D01*
G75*
G02*
X220307500Y-112225000I-250000J0D01*
G01*
X219632500Y-112225000D01*
G75*
G02*
X219382500Y-111975000I0J250000D01*
G01*
X219382500Y-111025000D01*
G75*
G02*
X219632500Y-110775000I250000J0D01*
G01*
X220307500Y-110775000D01*
G75*
G02*
X220557500Y-111025000I0J-250000D01*
G01*
G37*
%TD*%
%TO.C,C2*%
G36*
G01*
X218550000Y-108525000D02*
X218550000Y-109475000D01*
G75*
G02*
X218300000Y-109725000I-250000J0D01*
G01*
X217625000Y-109725000D01*
G75*
G02*
X217375000Y-109475000I0J250000D01*
G01*
X217375000Y-108525000D01*
G75*
G02*
X217625000Y-108275000I250000J0D01*
G01*
X218300000Y-108275000D01*
G75*
G02*
X218550000Y-108525000I0J-250000D01*
G01*
G37*
G36*
G01*
X220625000Y-108525000D02*
X220625000Y-109475000D01*
G75*
G02*
X220375000Y-109725000I-250000J0D01*
G01*
X219700000Y-109725000D01*
G75*
G02*
X219450000Y-109475000I0J250000D01*
G01*
X219450000Y-108525000D01*
G75*
G02*
X219700000Y-108275000I250000J0D01*
G01*
X220375000Y-108275000D01*
G75*
G02*
X220625000Y-108525000I0J-250000D01*
G01*
G37*
%TD*%
D12*
%TO.C,D1*%
X206141000Y-118808500D03*
X208641000Y-118808500D03*
%TD*%
%TO.C,R1*%
G36*
G01*
X195996000Y-104717001D02*
X195996000Y-103816999D01*
G75*
G02*
X196245999Y-103567000I249999J0D01*
G01*
X196946001Y-103567000D01*
G75*
G02*
X197196000Y-103816999I0J-249999D01*
G01*
X197196000Y-104717001D01*
G75*
G02*
X196946001Y-104967000I-249999J0D01*
G01*
X196245999Y-104967000D01*
G75*
G02*
X195996000Y-104717001I0J249999D01*
G01*
G37*
G36*
G01*
X197996000Y-104717001D02*
X197996000Y-103816999D01*
G75*
G02*
X198245999Y-103567000I249999J0D01*
G01*
X198946001Y-103567000D01*
G75*
G02*
X199196000Y-103816999I0J-249999D01*
G01*
X199196000Y-104717001D01*
G75*
G02*
X198946001Y-104967000I-249999J0D01*
G01*
X198245999Y-104967000D01*
G75*
G02*
X197996000Y-104717001I0J249999D01*
G01*
G37*
%TD*%
%TO.C,R2*%
G36*
G01*
X195996000Y-102812001D02*
X195996000Y-101911999D01*
G75*
G02*
X196245999Y-101662000I249999J0D01*
G01*
X196946001Y-101662000D01*
G75*
G02*
X197196000Y-101911999I0J-249999D01*
G01*
X197196000Y-102812001D01*
G75*
G02*
X196946001Y-103062000I-249999J0D01*
G01*
X196245999Y-103062000D01*
G75*
G02*
X195996000Y-102812001I0J249999D01*
G01*
G37*
G36*
G01*
X197996000Y-102812001D02*
X197996000Y-101911999D01*
G75*
G02*
X198245999Y-101662000I249999J0D01*
G01*
X198946001Y-101662000D01*
G75*
G02*
X199196000Y-101911999I0J-249999D01*
G01*
X199196000Y-102812001D01*
G75*
G02*
X198946001Y-103062000I-249999J0D01*
G01*
X198245999Y-103062000D01*
G75*
G02*
X197996000Y-102812001I0J249999D01*
G01*
G37*
%TD*%
%TO.C,R3*%
G36*
G01*
X204244500Y-118358499D02*
X204244500Y-119258501D01*
G75*
G02*
X203994501Y-119508500I-249999J0D01*
G01*
X203294499Y-119508500D01*
G75*
G02*
X203044500Y-119258501I0J249999D01*
G01*
X203044500Y-118358499D01*
G75*
G02*
X203294499Y-118108500I249999J0D01*
G01*
X203994501Y-118108500D01*
G75*
G02*
X204244500Y-118358499I0J-249999D01*
G01*
G37*
G36*
G01*
X202244500Y-118358499D02*
X202244500Y-119258501D01*
G75*
G02*
X201994501Y-119508500I-249999J0D01*
G01*
X201294499Y-119508500D01*
G75*
G02*
X201044500Y-119258501I0J249999D01*
G01*
X201044500Y-118358499D01*
G75*
G02*
X201294499Y-118108500I249999J0D01*
G01*
X201994501Y-118108500D01*
G75*
G02*
X202244500Y-118358499I0J-249999D01*
G01*
G37*
%TD*%
%TO.C,C3*%
G36*
G01*
X212761500Y-98204000D02*
X212761500Y-99154000D01*
G75*
G02*
X212511500Y-99404000I-250000J0D01*
G01*
X211836500Y-99404000D01*
G75*
G02*
X211586500Y-99154000I0J250000D01*
G01*
X211586500Y-98204000D01*
G75*
G02*
X211836500Y-97954000I250000J0D01*
G01*
X212511500Y-97954000D01*
G75*
G02*
X212761500Y-98204000I0J-250000D01*
G01*
G37*
G36*
G01*
X214836500Y-98204000D02*
X214836500Y-99154000D01*
G75*
G02*
X214586500Y-99404000I-250000J0D01*
G01*
X213911500Y-99404000D01*
G75*
G02*
X213661500Y-99154000I0J250000D01*
G01*
X213661500Y-98204000D01*
G75*
G02*
X213911500Y-97954000I250000J0D01*
G01*
X214586500Y-97954000D01*
G75*
G02*
X214836500Y-98204000I0J-250000D01*
G01*
G37*
%TD*%
%TO.C,C4*%
G36*
G01*
X210660000Y-97107500D02*
X209710000Y-97107500D01*
G75*
G02*
X209460000Y-96857500I0J250000D01*
G01*
X209460000Y-96182500D01*
G75*
G02*
X209710000Y-95932500I250000J0D01*
G01*
X210660000Y-95932500D01*
G75*
G02*
X210910000Y-96182500I0J-250000D01*
G01*
X210910000Y-96857500D01*
G75*
G02*
X210660000Y-97107500I-250000J0D01*
G01*
G37*
G36*
G01*
X210660000Y-99182500D02*
X209710000Y-99182500D01*
G75*
G02*
X209460000Y-98932500I0J250000D01*
G01*
X209460000Y-98257500D01*
G75*
G02*
X209710000Y-98007500I250000J0D01*
G01*
X210660000Y-98007500D01*
G75*
G02*
X210910000Y-98257500I0J-250000D01*
G01*
X210910000Y-98932500D01*
G75*
G02*
X210660000Y-99182500I-250000J0D01*
G01*
G37*
%TD*%
M02*
