M48
; DRILL file {KiCad 5.1.9-73d0e3b20d~88~ubuntu20.04.1} date Mon Jun 28 21:52:06 2021
; FORMAT={-:-/ absolute / inch / decimal}
; #@! TF.CreationDate,2021-06-28T21:52:06+02:00
; #@! TF.GenerationSoftware,Kicad,Pcbnew,5.1.9-73d0e3b20d~88~ubuntu20.04.1
FMAT,2
INCH
T1C0.0157
T2C0.0394
T3C0.0866
%
G90
G05
T1
X7.621Y-4.3086
X7.6225Y-4.348
X7.6275Y-4.265
X7.6975Y-4.105
X7.7759Y-4.1706
X7.8Y-4.545
X7.826Y-3.961
X7.83Y-4.7075
X7.835Y-4.16
X7.835Y-4.2
X7.8616Y-4.3894
X7.8624Y-4.6298
X7.875Y-3.925
X7.875Y-4.055
X7.875Y-4.735
X7.8865Y-4.3031
X7.8865Y-4.3425
X7.905Y-3.9625
X7.92Y-3.9163
X7.935Y-4.0425
X8.0035Y-4.0327
X8.0375Y-3.8125
X8.11Y-3.805
X8.1525Y-3.805
X8.17Y-4.0475
X8.1869Y-3.8352
X8.199Y-3.8775
X8.2186Y-3.8119
X8.2275Y-4.595
X8.2729Y-4.0514
X8.2875Y-4.7125
X8.3191Y-4.0457
X8.375Y-4.685
X8.4477Y-4.6456
X8.555Y-4.125
X8.5775Y-4.5425
X8.63Y-4.17
T2
X8.0315Y-4.7933
X8.1315Y-4.7933
X8.2315Y-4.7933
X8.3315Y-4.7933
T3
X7.6181Y-4.4587
X8.5728Y-3.9075
X8.5728Y-4.7146
X8.6866Y-4.0701
X8.6866Y-4.552
T0
M30
