%TF.GenerationSoftware,KiCad,Pcbnew,5.1.9-73d0e3b20d~88~ubuntu20.04.1*%
%TF.CreationDate,2021-06-28T21:50:03+02:00*%
%TF.ProjectId,watch,77617463-682e-46b6-9963-61645f706362,rev?*%
%TF.SameCoordinates,Original*%
%TF.FileFunction,Legend,Top*%
%TF.FilePolarity,Positive*%
%FSLAX46Y46*%
G04 Gerber Fmt 4.6, Leading zero omitted, Abs format (unit mm)*
G04 Created by KiCad (PCBNEW 5.1.9-73d0e3b20d~88~ubuntu20.04.1) date 2021-06-28 21:50:03*
%MOMM*%
%LPD*%
G01*
G04 APERTURE LIST*
%ADD10C,0.120000*%
%ADD11C,0.150000*%
%ADD12C,3.800000*%
%ADD13C,2.600000*%
%ADD14R,1.750000X1.800000*%
%ADD15O,1.700000X1.700000*%
%ADD16R,1.700000X1.700000*%
%ADD17R,2.700000X2.700000*%
%ADD18R,1.600000X3.100000*%
%ADD19R,1.000000X1.000000*%
G04 APERTURE END LIST*
D10*
%TO.C,Y1*%
X208781000Y-99938000D02*
X208781000Y-101738000D01*
X210931000Y-101788000D02*
X212031000Y-101788000D01*
X210931000Y-99888000D02*
X212031000Y-99888000D01*
%TO.C,U1*%
X199110000Y-110885000D02*
X199110000Y-111360000D01*
X199110000Y-111360000D02*
X198635000Y-111360000D01*
X194890000Y-107615000D02*
X194890000Y-107140000D01*
X194890000Y-107140000D02*
X195365000Y-107140000D01*
X194890000Y-110885000D02*
X194890000Y-111360000D01*
X194890000Y-111360000D02*
X195365000Y-111360000D01*
X199110000Y-107615000D02*
X199110000Y-107140000D01*
%TO.C,Elektronika-1*%
X199760000Y-103265000D02*
X199760000Y-115735000D01*
X215240000Y-103265000D02*
X199760000Y-103265000D01*
X215240000Y-115735000D02*
X215240000Y-103265000D01*
X199760000Y-115735000D02*
X215240000Y-115735000D01*
X199820000Y-106965000D02*
X199820000Y-108500000D01*
X215180000Y-106965000D02*
X199820000Y-106965000D01*
X215180000Y-112035000D02*
X215180000Y-106965000D01*
X199820000Y-112035000D02*
X215180000Y-112035000D01*
X199820000Y-110500000D02*
X199820000Y-112035000D01*
X199820000Y-108500000D02*
G75*
G02*
X199820000Y-110500000I0J-1000000D01*
G01*
%TO.C,U2*%
X207610000Y-101635000D02*
X207610000Y-102110000D01*
X207610000Y-102110000D02*
X207135000Y-102110000D01*
X203390000Y-98365000D02*
X203390000Y-97890000D01*
X203390000Y-97890000D02*
X203865000Y-97890000D01*
X203390000Y-101635000D02*
X203390000Y-102110000D01*
X203390000Y-102110000D02*
X203865000Y-102110000D01*
X207610000Y-98365000D02*
X207610000Y-97890000D01*
%TO.C,C1*%
X219193752Y-110765000D02*
X218671248Y-110765000D01*
X219193752Y-112235000D02*
X218671248Y-112235000D01*
%TO.C,C2*%
X219261252Y-108265000D02*
X218738748Y-108265000D01*
X219261252Y-109735000D02*
X218738748Y-109735000D01*
%TO.C,D1*%
X205491000Y-117958500D02*
X205491000Y-119658500D01*
X205491000Y-119658500D02*
X208641000Y-119658500D01*
X205491000Y-117958500D02*
X208641000Y-117958500D01*
%TO.C,R1*%
X197368936Y-103532000D02*
X197823064Y-103532000D01*
X197368936Y-105002000D02*
X197823064Y-105002000D01*
%TO.C,R2*%
X197368936Y-101627000D02*
X197823064Y-101627000D01*
X197368936Y-103097000D02*
X197823064Y-103097000D01*
%TO.C,R3*%
X202871564Y-119543500D02*
X202417436Y-119543500D01*
X202871564Y-118073500D02*
X202417436Y-118073500D01*
%TO.C,C3*%
X213472752Y-97944000D02*
X212950248Y-97944000D01*
X213472752Y-99414000D02*
X212950248Y-99414000D01*
%TO.C,C4*%
X210920000Y-97818752D02*
X210920000Y-97296248D01*
X209450000Y-97818752D02*
X209450000Y-97296248D01*
%TO.C,SW1*%
D11*
X188468166Y-113688761D02*
X188611023Y-113736380D01*
X188849119Y-113736380D01*
X188944357Y-113688761D01*
X188991976Y-113641142D01*
X189039595Y-113545904D01*
X189039595Y-113450666D01*
X188991976Y-113355428D01*
X188944357Y-113307809D01*
X188849119Y-113260190D01*
X188658642Y-113212571D01*
X188563404Y-113164952D01*
X188515785Y-113117333D01*
X188468166Y-113022095D01*
X188468166Y-112926857D01*
X188515785Y-112831619D01*
X188563404Y-112784000D01*
X188658642Y-112736380D01*
X188896738Y-112736380D01*
X189039595Y-112784000D01*
X189372928Y-112736380D02*
X189611023Y-113736380D01*
X189801500Y-113022095D01*
X189991976Y-113736380D01*
X190230071Y-112736380D01*
X191134833Y-113736380D02*
X190563404Y-113736380D01*
X190849119Y-113736380D02*
X190849119Y-112736380D01*
X190753880Y-112879238D01*
X190658642Y-112974476D01*
X190563404Y-113022095D01*
%TO.C,Y1*%
X214788809Y-100877690D02*
X214788809Y-101353880D01*
X214455476Y-100353880D02*
X214788809Y-100877690D01*
X215122142Y-100353880D01*
X215979285Y-101353880D02*
X215407857Y-101353880D01*
X215693571Y-101353880D02*
X215693571Y-100353880D01*
X215598333Y-100496738D01*
X215503095Y-100591976D01*
X215407857Y-100639595D01*
%TO.C,SW5*%
X223012166Y-103846261D02*
X223155023Y-103893880D01*
X223393119Y-103893880D01*
X223488357Y-103846261D01*
X223535976Y-103798642D01*
X223583595Y-103703404D01*
X223583595Y-103608166D01*
X223535976Y-103512928D01*
X223488357Y-103465309D01*
X223393119Y-103417690D01*
X223202642Y-103370071D01*
X223107404Y-103322452D01*
X223059785Y-103274833D01*
X223012166Y-103179595D01*
X223012166Y-103084357D01*
X223059785Y-102989119D01*
X223107404Y-102941500D01*
X223202642Y-102893880D01*
X223440738Y-102893880D01*
X223583595Y-102941500D01*
X223916928Y-102893880D02*
X224155023Y-103893880D01*
X224345500Y-103179595D01*
X224535976Y-103893880D01*
X224774071Y-102893880D01*
X225631214Y-102893880D02*
X225155023Y-102893880D01*
X225107404Y-103370071D01*
X225155023Y-103322452D01*
X225250261Y-103274833D01*
X225488357Y-103274833D01*
X225583595Y-103322452D01*
X225631214Y-103370071D01*
X225678833Y-103465309D01*
X225678833Y-103703404D01*
X225631214Y-103798642D01*
X225583595Y-103846261D01*
X225488357Y-103893880D01*
X225250261Y-103893880D01*
X225155023Y-103846261D01*
X225107404Y-103798642D01*
%TO.C,SW4*%
X223075666Y-116038261D02*
X223218523Y-116085880D01*
X223456619Y-116085880D01*
X223551857Y-116038261D01*
X223599476Y-115990642D01*
X223647095Y-115895404D01*
X223647095Y-115800166D01*
X223599476Y-115704928D01*
X223551857Y-115657309D01*
X223456619Y-115609690D01*
X223266142Y-115562071D01*
X223170904Y-115514452D01*
X223123285Y-115466833D01*
X223075666Y-115371595D01*
X223075666Y-115276357D01*
X223123285Y-115181119D01*
X223170904Y-115133500D01*
X223266142Y-115085880D01*
X223504238Y-115085880D01*
X223647095Y-115133500D01*
X223980428Y-115085880D02*
X224218523Y-116085880D01*
X224409000Y-115371595D01*
X224599476Y-116085880D01*
X224837571Y-115085880D01*
X225647095Y-115419214D02*
X225647095Y-116085880D01*
X225409000Y-115038261D02*
X225170904Y-115752547D01*
X225789952Y-115752547D01*
%TO.C,SW3*%
X220154666Y-120102261D02*
X220297523Y-120149880D01*
X220535619Y-120149880D01*
X220630857Y-120102261D01*
X220678476Y-120054642D01*
X220726095Y-119959404D01*
X220726095Y-119864166D01*
X220678476Y-119768928D01*
X220630857Y-119721309D01*
X220535619Y-119673690D01*
X220345142Y-119626071D01*
X220249904Y-119578452D01*
X220202285Y-119530833D01*
X220154666Y-119435595D01*
X220154666Y-119340357D01*
X220202285Y-119245119D01*
X220249904Y-119197500D01*
X220345142Y-119149880D01*
X220583238Y-119149880D01*
X220726095Y-119197500D01*
X221059428Y-119149880D02*
X221297523Y-120149880D01*
X221488000Y-119435595D01*
X221678476Y-120149880D01*
X221916571Y-119149880D01*
X222202285Y-119149880D02*
X222821333Y-119149880D01*
X222488000Y-119530833D01*
X222630857Y-119530833D01*
X222726095Y-119578452D01*
X222773714Y-119626071D01*
X222821333Y-119721309D01*
X222821333Y-119959404D01*
X222773714Y-120054642D01*
X222726095Y-120102261D01*
X222630857Y-120149880D01*
X222345142Y-120149880D01*
X222249904Y-120102261D01*
X222202285Y-120054642D01*
%TO.C,SW2*%
X220091166Y-99655261D02*
X220234023Y-99702880D01*
X220472119Y-99702880D01*
X220567357Y-99655261D01*
X220614976Y-99607642D01*
X220662595Y-99512404D01*
X220662595Y-99417166D01*
X220614976Y-99321928D01*
X220567357Y-99274309D01*
X220472119Y-99226690D01*
X220281642Y-99179071D01*
X220186404Y-99131452D01*
X220138785Y-99083833D01*
X220091166Y-98988595D01*
X220091166Y-98893357D01*
X220138785Y-98798119D01*
X220186404Y-98750500D01*
X220281642Y-98702880D01*
X220519738Y-98702880D01*
X220662595Y-98750500D01*
X220995928Y-98702880D02*
X221234023Y-99702880D01*
X221424500Y-98988595D01*
X221614976Y-99702880D01*
X221853071Y-98702880D01*
X222186404Y-98798119D02*
X222234023Y-98750500D01*
X222329261Y-98702880D01*
X222567357Y-98702880D01*
X222662595Y-98750500D01*
X222710214Y-98798119D01*
X222757833Y-98893357D01*
X222757833Y-98988595D01*
X222710214Y-99131452D01*
X222138785Y-99702880D01*
X222757833Y-99702880D01*
%TO.C,U1*%
X196532595Y-112355380D02*
X196532595Y-113164904D01*
X196580214Y-113260142D01*
X196627833Y-113307761D01*
X196723071Y-113355380D01*
X196913547Y-113355380D01*
X197008785Y-113307761D01*
X197056404Y-113260142D01*
X197104023Y-113164904D01*
X197104023Y-112355380D01*
X198104023Y-113355380D02*
X197532595Y-113355380D01*
X197818309Y-113355380D02*
X197818309Y-112355380D01*
X197723071Y-112498238D01*
X197627833Y-112593476D01*
X197532595Y-112641095D01*
%TO.C,Elektronika-1*%
X202518000Y-109428571D02*
X202851333Y-109428571D01*
X202994190Y-109952380D02*
X202518000Y-109952380D01*
X202518000Y-108952380D01*
X202994190Y-108952380D01*
X203565619Y-109952380D02*
X203470380Y-109904761D01*
X203422761Y-109809523D01*
X203422761Y-108952380D01*
X204327523Y-109904761D02*
X204232285Y-109952380D01*
X204041809Y-109952380D01*
X203946571Y-109904761D01*
X203898952Y-109809523D01*
X203898952Y-109428571D01*
X203946571Y-109333333D01*
X204041809Y-109285714D01*
X204232285Y-109285714D01*
X204327523Y-109333333D01*
X204375142Y-109428571D01*
X204375142Y-109523809D01*
X203898952Y-109619047D01*
X204803714Y-109952380D02*
X204803714Y-108952380D01*
X204898952Y-109571428D02*
X205184666Y-109952380D01*
X205184666Y-109285714D02*
X204803714Y-109666666D01*
X205470380Y-109285714D02*
X205851333Y-109285714D01*
X205613238Y-108952380D02*
X205613238Y-109809523D01*
X205660857Y-109904761D01*
X205756095Y-109952380D01*
X205851333Y-109952380D01*
X206184666Y-109952380D02*
X206184666Y-109285714D01*
X206184666Y-109476190D02*
X206232285Y-109380952D01*
X206279904Y-109333333D01*
X206375142Y-109285714D01*
X206470380Y-109285714D01*
X206946571Y-109952380D02*
X206851333Y-109904761D01*
X206803714Y-109857142D01*
X206756095Y-109761904D01*
X206756095Y-109476190D01*
X206803714Y-109380952D01*
X206851333Y-109333333D01*
X206946571Y-109285714D01*
X207089428Y-109285714D01*
X207184666Y-109333333D01*
X207232285Y-109380952D01*
X207279904Y-109476190D01*
X207279904Y-109761904D01*
X207232285Y-109857142D01*
X207184666Y-109904761D01*
X207089428Y-109952380D01*
X206946571Y-109952380D01*
X207708476Y-109285714D02*
X207708476Y-109952380D01*
X207708476Y-109380952D02*
X207756095Y-109333333D01*
X207851333Y-109285714D01*
X207994190Y-109285714D01*
X208089428Y-109333333D01*
X208137047Y-109428571D01*
X208137047Y-109952380D01*
X208613238Y-109952380D02*
X208613238Y-109285714D01*
X208613238Y-108952380D02*
X208565619Y-109000000D01*
X208613238Y-109047619D01*
X208660857Y-109000000D01*
X208613238Y-108952380D01*
X208613238Y-109047619D01*
X209089428Y-109952380D02*
X209089428Y-108952380D01*
X209184666Y-109571428D02*
X209470380Y-109952380D01*
X209470380Y-109285714D02*
X209089428Y-109666666D01*
X210327523Y-109952380D02*
X210327523Y-109428571D01*
X210279904Y-109333333D01*
X210184666Y-109285714D01*
X209994190Y-109285714D01*
X209898952Y-109333333D01*
X210327523Y-109904761D02*
X210232285Y-109952380D01*
X209994190Y-109952380D01*
X209898952Y-109904761D01*
X209851333Y-109809523D01*
X209851333Y-109714285D01*
X209898952Y-109619047D01*
X209994190Y-109571428D01*
X210232285Y-109571428D01*
X210327523Y-109523809D01*
X210803714Y-109571428D02*
X211565619Y-109571428D01*
X212565619Y-109952380D02*
X211994190Y-109952380D01*
X212279904Y-109952380D02*
X212279904Y-108952380D01*
X212184666Y-109095238D01*
X212089428Y-109190476D01*
X211994190Y-109238095D01*
%TO.C,U2*%
X201168095Y-100988880D02*
X201168095Y-101798404D01*
X201215714Y-101893642D01*
X201263333Y-101941261D01*
X201358571Y-101988880D01*
X201549047Y-101988880D01*
X201644285Y-101941261D01*
X201691904Y-101893642D01*
X201739523Y-101798404D01*
X201739523Y-100988880D01*
X202168095Y-101084119D02*
X202215714Y-101036500D01*
X202310952Y-100988880D01*
X202549047Y-100988880D01*
X202644285Y-101036500D01*
X202691904Y-101084119D01*
X202739523Y-101179357D01*
X202739523Y-101274595D01*
X202691904Y-101417452D01*
X202120476Y-101988880D01*
X202739523Y-101988880D01*
%TO.C,C1*%
X215987333Y-111863142D02*
X215939714Y-111910761D01*
X215796857Y-111958380D01*
X215701619Y-111958380D01*
X215558761Y-111910761D01*
X215463523Y-111815523D01*
X215415904Y-111720285D01*
X215368285Y-111529809D01*
X215368285Y-111386952D01*
X215415904Y-111196476D01*
X215463523Y-111101238D01*
X215558761Y-111006000D01*
X215701619Y-110958380D01*
X215796857Y-110958380D01*
X215939714Y-111006000D01*
X215987333Y-111053619D01*
X216939714Y-111958380D02*
X216368285Y-111958380D01*
X216654000Y-111958380D02*
X216654000Y-110958380D01*
X216558761Y-111101238D01*
X216463523Y-111196476D01*
X216368285Y-111244095D01*
%TO.C,C2*%
X216050833Y-109323142D02*
X216003214Y-109370761D01*
X215860357Y-109418380D01*
X215765119Y-109418380D01*
X215622261Y-109370761D01*
X215527023Y-109275523D01*
X215479404Y-109180285D01*
X215431785Y-108989809D01*
X215431785Y-108846952D01*
X215479404Y-108656476D01*
X215527023Y-108561238D01*
X215622261Y-108466000D01*
X215765119Y-108418380D01*
X215860357Y-108418380D01*
X216003214Y-108466000D01*
X216050833Y-108513619D01*
X216431785Y-108513619D02*
X216479404Y-108466000D01*
X216574642Y-108418380D01*
X216812738Y-108418380D01*
X216907976Y-108466000D01*
X216955595Y-108513619D01*
X217003214Y-108608857D01*
X217003214Y-108704095D01*
X216955595Y-108846952D01*
X216384166Y-109418380D01*
X217003214Y-109418380D01*
%TO.C,D1*%
X209891404Y-119133880D02*
X209891404Y-118133880D01*
X210129500Y-118133880D01*
X210272357Y-118181500D01*
X210367595Y-118276738D01*
X210415214Y-118371976D01*
X210462833Y-118562452D01*
X210462833Y-118705309D01*
X210415214Y-118895785D01*
X210367595Y-118991023D01*
X210272357Y-119086261D01*
X210129500Y-119133880D01*
X209891404Y-119133880D01*
X211415214Y-119133880D02*
X210843785Y-119133880D01*
X211129500Y-119133880D02*
X211129500Y-118133880D01*
X211034261Y-118276738D01*
X210939023Y-118371976D01*
X210843785Y-118419595D01*
%TO.C,R1*%
X196238833Y-106370380D02*
X195905500Y-105894190D01*
X195667404Y-106370380D02*
X195667404Y-105370380D01*
X196048357Y-105370380D01*
X196143595Y-105418000D01*
X196191214Y-105465619D01*
X196238833Y-105560857D01*
X196238833Y-105703714D01*
X196191214Y-105798952D01*
X196143595Y-105846571D01*
X196048357Y-105894190D01*
X195667404Y-105894190D01*
X197191214Y-106370380D02*
X196619785Y-106370380D01*
X196905500Y-106370380D02*
X196905500Y-105370380D01*
X196810261Y-105513238D01*
X196715023Y-105608476D01*
X196619785Y-105656095D01*
%TO.C,R2*%
X197064333Y-101290380D02*
X196731000Y-100814190D01*
X196492904Y-101290380D02*
X196492904Y-100290380D01*
X196873857Y-100290380D01*
X196969095Y-100338000D01*
X197016714Y-100385619D01*
X197064333Y-100480857D01*
X197064333Y-100623714D01*
X197016714Y-100718952D01*
X196969095Y-100766571D01*
X196873857Y-100814190D01*
X196492904Y-100814190D01*
X197445285Y-100385619D02*
X197492904Y-100338000D01*
X197588142Y-100290380D01*
X197826238Y-100290380D01*
X197921476Y-100338000D01*
X197969095Y-100385619D01*
X198016714Y-100480857D01*
X198016714Y-100576095D01*
X197969095Y-100718952D01*
X197397666Y-101290380D01*
X198016714Y-101290380D01*
%TO.C,R3*%
X199413833Y-119324380D02*
X199080500Y-118848190D01*
X198842404Y-119324380D02*
X198842404Y-118324380D01*
X199223357Y-118324380D01*
X199318595Y-118372000D01*
X199366214Y-118419619D01*
X199413833Y-118514857D01*
X199413833Y-118657714D01*
X199366214Y-118752952D01*
X199318595Y-118800571D01*
X199223357Y-118848190D01*
X198842404Y-118848190D01*
X199747166Y-118324380D02*
X200366214Y-118324380D01*
X200032880Y-118705333D01*
X200175738Y-118705333D01*
X200270976Y-118752952D01*
X200318595Y-118800571D01*
X200366214Y-118895809D01*
X200366214Y-119133904D01*
X200318595Y-119229142D01*
X200270976Y-119276761D01*
X200175738Y-119324380D01*
X199890023Y-119324380D01*
X199794785Y-119276761D01*
X199747166Y-119229142D01*
%TO.C,C3*%
X212431333Y-97321642D02*
X212383714Y-97369261D01*
X212240857Y-97416880D01*
X212145619Y-97416880D01*
X212002761Y-97369261D01*
X211907523Y-97274023D01*
X211859904Y-97178785D01*
X211812285Y-96988309D01*
X211812285Y-96845452D01*
X211859904Y-96654976D01*
X211907523Y-96559738D01*
X212002761Y-96464500D01*
X212145619Y-96416880D01*
X212240857Y-96416880D01*
X212383714Y-96464500D01*
X212431333Y-96512119D01*
X212764666Y-96416880D02*
X213383714Y-96416880D01*
X213050380Y-96797833D01*
X213193238Y-96797833D01*
X213288476Y-96845452D01*
X213336095Y-96893071D01*
X213383714Y-96988309D01*
X213383714Y-97226404D01*
X213336095Y-97321642D01*
X213288476Y-97369261D01*
X213193238Y-97416880D01*
X212907523Y-97416880D01*
X212812285Y-97369261D01*
X212764666Y-97321642D01*
%TO.C,C4*%
X208113333Y-96750142D02*
X208065714Y-96797761D01*
X207922857Y-96845380D01*
X207827619Y-96845380D01*
X207684761Y-96797761D01*
X207589523Y-96702523D01*
X207541904Y-96607285D01*
X207494285Y-96416809D01*
X207494285Y-96273952D01*
X207541904Y-96083476D01*
X207589523Y-95988238D01*
X207684761Y-95893000D01*
X207827619Y-95845380D01*
X207922857Y-95845380D01*
X208065714Y-95893000D01*
X208113333Y-95940619D01*
X208970476Y-96178714D02*
X208970476Y-96845380D01*
X208732380Y-95797761D02*
X208494285Y-96512047D01*
X209113333Y-96512047D01*
%TD*%
%LPC*%
D12*
%TO.C,SW1*%
X193500000Y-113250000D03*
D13*
X193500000Y-113250000D03*
%TD*%
D14*
%TO.C,Y1*%
X209856000Y-100838000D03*
X213106000Y-100838000D03*
%TD*%
D15*
%TO.C,J1*%
X211620000Y-121750000D03*
X209080000Y-121750000D03*
X206540000Y-121750000D03*
D16*
X204000000Y-121750000D03*
%TD*%
D13*
%TO.C,SW5*%
X220640000Y-103380000D03*
D12*
X220640000Y-103380000D03*
%TD*%
D13*
%TO.C,SW4*%
X220640000Y-115620000D03*
D12*
X220640000Y-115620000D03*
%TD*%
D13*
%TO.C,SW3*%
X217750000Y-119750000D03*
D12*
X217750000Y-119750000D03*
%TD*%
D13*
%TO.C,SW2*%
X217750000Y-99250000D03*
D12*
X217750000Y-99250000D03*
%TD*%
D17*
%TO.C,U1*%
X197000000Y-109250000D03*
G36*
G01*
X198612500Y-107875000D02*
X199312500Y-107875000D01*
G75*
G02*
X199375000Y-107937500I0J-62500D01*
G01*
X199375000Y-108062500D01*
G75*
G02*
X199312500Y-108125000I-62500J0D01*
G01*
X198612500Y-108125000D01*
G75*
G02*
X198550000Y-108062500I0J62500D01*
G01*
X198550000Y-107937500D01*
G75*
G02*
X198612500Y-107875000I62500J0D01*
G01*
G37*
G36*
G01*
X198612500Y-108375000D02*
X199312500Y-108375000D01*
G75*
G02*
X199375000Y-108437500I0J-62500D01*
G01*
X199375000Y-108562500D01*
G75*
G02*
X199312500Y-108625000I-62500J0D01*
G01*
X198612500Y-108625000D01*
G75*
G02*
X198550000Y-108562500I0J62500D01*
G01*
X198550000Y-108437500D01*
G75*
G02*
X198612500Y-108375000I62500J0D01*
G01*
G37*
G36*
G01*
X198612500Y-108875000D02*
X199312500Y-108875000D01*
G75*
G02*
X199375000Y-108937500I0J-62500D01*
G01*
X199375000Y-109062500D01*
G75*
G02*
X199312500Y-109125000I-62500J0D01*
G01*
X198612500Y-109125000D01*
G75*
G02*
X198550000Y-109062500I0J62500D01*
G01*
X198550000Y-108937500D01*
G75*
G02*
X198612500Y-108875000I62500J0D01*
G01*
G37*
G36*
G01*
X198612500Y-109375000D02*
X199312500Y-109375000D01*
G75*
G02*
X199375000Y-109437500I0J-62500D01*
G01*
X199375000Y-109562500D01*
G75*
G02*
X199312500Y-109625000I-62500J0D01*
G01*
X198612500Y-109625000D01*
G75*
G02*
X198550000Y-109562500I0J62500D01*
G01*
X198550000Y-109437500D01*
G75*
G02*
X198612500Y-109375000I62500J0D01*
G01*
G37*
G36*
G01*
X198612500Y-109875000D02*
X199312500Y-109875000D01*
G75*
G02*
X199375000Y-109937500I0J-62500D01*
G01*
X199375000Y-110062500D01*
G75*
G02*
X199312500Y-110125000I-62500J0D01*
G01*
X198612500Y-110125000D01*
G75*
G02*
X198550000Y-110062500I0J62500D01*
G01*
X198550000Y-109937500D01*
G75*
G02*
X198612500Y-109875000I62500J0D01*
G01*
G37*
G36*
G01*
X198612500Y-110375000D02*
X199312500Y-110375000D01*
G75*
G02*
X199375000Y-110437500I0J-62500D01*
G01*
X199375000Y-110562500D01*
G75*
G02*
X199312500Y-110625000I-62500J0D01*
G01*
X198612500Y-110625000D01*
G75*
G02*
X198550000Y-110562500I0J62500D01*
G01*
X198550000Y-110437500D01*
G75*
G02*
X198612500Y-110375000I62500J0D01*
G01*
G37*
G36*
G01*
X198187500Y-110800000D02*
X198312500Y-110800000D01*
G75*
G02*
X198375000Y-110862500I0J-62500D01*
G01*
X198375000Y-111562500D01*
G75*
G02*
X198312500Y-111625000I-62500J0D01*
G01*
X198187500Y-111625000D01*
G75*
G02*
X198125000Y-111562500I0J62500D01*
G01*
X198125000Y-110862500D01*
G75*
G02*
X198187500Y-110800000I62500J0D01*
G01*
G37*
G36*
G01*
X197687500Y-110800000D02*
X197812500Y-110800000D01*
G75*
G02*
X197875000Y-110862500I0J-62500D01*
G01*
X197875000Y-111562500D01*
G75*
G02*
X197812500Y-111625000I-62500J0D01*
G01*
X197687500Y-111625000D01*
G75*
G02*
X197625000Y-111562500I0J62500D01*
G01*
X197625000Y-110862500D01*
G75*
G02*
X197687500Y-110800000I62500J0D01*
G01*
G37*
G36*
G01*
X197187500Y-110800000D02*
X197312500Y-110800000D01*
G75*
G02*
X197375000Y-110862500I0J-62500D01*
G01*
X197375000Y-111562500D01*
G75*
G02*
X197312500Y-111625000I-62500J0D01*
G01*
X197187500Y-111625000D01*
G75*
G02*
X197125000Y-111562500I0J62500D01*
G01*
X197125000Y-110862500D01*
G75*
G02*
X197187500Y-110800000I62500J0D01*
G01*
G37*
G36*
G01*
X196687500Y-110800000D02*
X196812500Y-110800000D01*
G75*
G02*
X196875000Y-110862500I0J-62500D01*
G01*
X196875000Y-111562500D01*
G75*
G02*
X196812500Y-111625000I-62500J0D01*
G01*
X196687500Y-111625000D01*
G75*
G02*
X196625000Y-111562500I0J62500D01*
G01*
X196625000Y-110862500D01*
G75*
G02*
X196687500Y-110800000I62500J0D01*
G01*
G37*
G36*
G01*
X196187500Y-110800000D02*
X196312500Y-110800000D01*
G75*
G02*
X196375000Y-110862500I0J-62500D01*
G01*
X196375000Y-111562500D01*
G75*
G02*
X196312500Y-111625000I-62500J0D01*
G01*
X196187500Y-111625000D01*
G75*
G02*
X196125000Y-111562500I0J62500D01*
G01*
X196125000Y-110862500D01*
G75*
G02*
X196187500Y-110800000I62500J0D01*
G01*
G37*
G36*
G01*
X195687500Y-110800000D02*
X195812500Y-110800000D01*
G75*
G02*
X195875000Y-110862500I0J-62500D01*
G01*
X195875000Y-111562500D01*
G75*
G02*
X195812500Y-111625000I-62500J0D01*
G01*
X195687500Y-111625000D01*
G75*
G02*
X195625000Y-111562500I0J62500D01*
G01*
X195625000Y-110862500D01*
G75*
G02*
X195687500Y-110800000I62500J0D01*
G01*
G37*
G36*
G01*
X194687500Y-110375000D02*
X195387500Y-110375000D01*
G75*
G02*
X195450000Y-110437500I0J-62500D01*
G01*
X195450000Y-110562500D01*
G75*
G02*
X195387500Y-110625000I-62500J0D01*
G01*
X194687500Y-110625000D01*
G75*
G02*
X194625000Y-110562500I0J62500D01*
G01*
X194625000Y-110437500D01*
G75*
G02*
X194687500Y-110375000I62500J0D01*
G01*
G37*
G36*
G01*
X194687500Y-109875000D02*
X195387500Y-109875000D01*
G75*
G02*
X195450000Y-109937500I0J-62500D01*
G01*
X195450000Y-110062500D01*
G75*
G02*
X195387500Y-110125000I-62500J0D01*
G01*
X194687500Y-110125000D01*
G75*
G02*
X194625000Y-110062500I0J62500D01*
G01*
X194625000Y-109937500D01*
G75*
G02*
X194687500Y-109875000I62500J0D01*
G01*
G37*
G36*
G01*
X194687500Y-109375000D02*
X195387500Y-109375000D01*
G75*
G02*
X195450000Y-109437500I0J-62500D01*
G01*
X195450000Y-109562500D01*
G75*
G02*
X195387500Y-109625000I-62500J0D01*
G01*
X194687500Y-109625000D01*
G75*
G02*
X194625000Y-109562500I0J62500D01*
G01*
X194625000Y-109437500D01*
G75*
G02*
X194687500Y-109375000I62500J0D01*
G01*
G37*
G36*
G01*
X194687500Y-108875000D02*
X195387500Y-108875000D01*
G75*
G02*
X195450000Y-108937500I0J-62500D01*
G01*
X195450000Y-109062500D01*
G75*
G02*
X195387500Y-109125000I-62500J0D01*
G01*
X194687500Y-109125000D01*
G75*
G02*
X194625000Y-109062500I0J62500D01*
G01*
X194625000Y-108937500D01*
G75*
G02*
X194687500Y-108875000I62500J0D01*
G01*
G37*
G36*
G01*
X194687500Y-108375000D02*
X195387500Y-108375000D01*
G75*
G02*
X195450000Y-108437500I0J-62500D01*
G01*
X195450000Y-108562500D01*
G75*
G02*
X195387500Y-108625000I-62500J0D01*
G01*
X194687500Y-108625000D01*
G75*
G02*
X194625000Y-108562500I0J62500D01*
G01*
X194625000Y-108437500D01*
G75*
G02*
X194687500Y-108375000I62500J0D01*
G01*
G37*
G36*
G01*
X194687500Y-107875000D02*
X195387500Y-107875000D01*
G75*
G02*
X195450000Y-107937500I0J-62500D01*
G01*
X195450000Y-108062500D01*
G75*
G02*
X195387500Y-108125000I-62500J0D01*
G01*
X194687500Y-108125000D01*
G75*
G02*
X194625000Y-108062500I0J62500D01*
G01*
X194625000Y-107937500D01*
G75*
G02*
X194687500Y-107875000I62500J0D01*
G01*
G37*
G36*
G01*
X195687500Y-106875000D02*
X195812500Y-106875000D01*
G75*
G02*
X195875000Y-106937500I0J-62500D01*
G01*
X195875000Y-107637500D01*
G75*
G02*
X195812500Y-107700000I-62500J0D01*
G01*
X195687500Y-107700000D01*
G75*
G02*
X195625000Y-107637500I0J62500D01*
G01*
X195625000Y-106937500D01*
G75*
G02*
X195687500Y-106875000I62500J0D01*
G01*
G37*
G36*
G01*
X196187500Y-106875000D02*
X196312500Y-106875000D01*
G75*
G02*
X196375000Y-106937500I0J-62500D01*
G01*
X196375000Y-107637500D01*
G75*
G02*
X196312500Y-107700000I-62500J0D01*
G01*
X196187500Y-107700000D01*
G75*
G02*
X196125000Y-107637500I0J62500D01*
G01*
X196125000Y-106937500D01*
G75*
G02*
X196187500Y-106875000I62500J0D01*
G01*
G37*
G36*
G01*
X196687500Y-106875000D02*
X196812500Y-106875000D01*
G75*
G02*
X196875000Y-106937500I0J-62500D01*
G01*
X196875000Y-107637500D01*
G75*
G02*
X196812500Y-107700000I-62500J0D01*
G01*
X196687500Y-107700000D01*
G75*
G02*
X196625000Y-107637500I0J62500D01*
G01*
X196625000Y-106937500D01*
G75*
G02*
X196687500Y-106875000I62500J0D01*
G01*
G37*
G36*
G01*
X197187500Y-106875000D02*
X197312500Y-106875000D01*
G75*
G02*
X197375000Y-106937500I0J-62500D01*
G01*
X197375000Y-107637500D01*
G75*
G02*
X197312500Y-107700000I-62500J0D01*
G01*
X197187500Y-107700000D01*
G75*
G02*
X197125000Y-107637500I0J62500D01*
G01*
X197125000Y-106937500D01*
G75*
G02*
X197187500Y-106875000I62500J0D01*
G01*
G37*
G36*
G01*
X197687500Y-106875000D02*
X197812500Y-106875000D01*
G75*
G02*
X197875000Y-106937500I0J-62500D01*
G01*
X197875000Y-107637500D01*
G75*
G02*
X197812500Y-107700000I-62500J0D01*
G01*
X197687500Y-107700000D01*
G75*
G02*
X197625000Y-107637500I0J62500D01*
G01*
X197625000Y-106937500D01*
G75*
G02*
X197687500Y-106875000I62500J0D01*
G01*
G37*
G36*
G01*
X198187500Y-106875000D02*
X198312500Y-106875000D01*
G75*
G02*
X198375000Y-106937500I0J-62500D01*
G01*
X198375000Y-107637500D01*
G75*
G02*
X198312500Y-107700000I-62500J0D01*
G01*
X198187500Y-107700000D01*
G75*
G02*
X198125000Y-107637500I0J62500D01*
G01*
X198125000Y-106937500D01*
G75*
G02*
X198187500Y-106875000I62500J0D01*
G01*
G37*
%TD*%
D18*
%TO.C,Elektronika-1*%
X201150000Y-113945000D03*
X213850000Y-105055000D03*
X203690000Y-113945000D03*
X211310000Y-105055000D03*
X206230000Y-113945000D03*
X208770000Y-105055000D03*
X208770000Y-113945000D03*
X206230000Y-105055000D03*
X211310000Y-113945000D03*
X203690000Y-105055000D03*
X213850000Y-113945000D03*
X201150000Y-105055000D03*
%TD*%
D17*
%TO.C,U2*%
X205500000Y-100000000D03*
G36*
G01*
X207112500Y-98625000D02*
X207812500Y-98625000D01*
G75*
G02*
X207875000Y-98687500I0J-62500D01*
G01*
X207875000Y-98812500D01*
G75*
G02*
X207812500Y-98875000I-62500J0D01*
G01*
X207112500Y-98875000D01*
G75*
G02*
X207050000Y-98812500I0J62500D01*
G01*
X207050000Y-98687500D01*
G75*
G02*
X207112500Y-98625000I62500J0D01*
G01*
G37*
G36*
G01*
X207112500Y-99125000D02*
X207812500Y-99125000D01*
G75*
G02*
X207875000Y-99187500I0J-62500D01*
G01*
X207875000Y-99312500D01*
G75*
G02*
X207812500Y-99375000I-62500J0D01*
G01*
X207112500Y-99375000D01*
G75*
G02*
X207050000Y-99312500I0J62500D01*
G01*
X207050000Y-99187500D01*
G75*
G02*
X207112500Y-99125000I62500J0D01*
G01*
G37*
G36*
G01*
X207112500Y-99625000D02*
X207812500Y-99625000D01*
G75*
G02*
X207875000Y-99687500I0J-62500D01*
G01*
X207875000Y-99812500D01*
G75*
G02*
X207812500Y-99875000I-62500J0D01*
G01*
X207112500Y-99875000D01*
G75*
G02*
X207050000Y-99812500I0J62500D01*
G01*
X207050000Y-99687500D01*
G75*
G02*
X207112500Y-99625000I62500J0D01*
G01*
G37*
G36*
G01*
X207112500Y-100125000D02*
X207812500Y-100125000D01*
G75*
G02*
X207875000Y-100187500I0J-62500D01*
G01*
X207875000Y-100312500D01*
G75*
G02*
X207812500Y-100375000I-62500J0D01*
G01*
X207112500Y-100375000D01*
G75*
G02*
X207050000Y-100312500I0J62500D01*
G01*
X207050000Y-100187500D01*
G75*
G02*
X207112500Y-100125000I62500J0D01*
G01*
G37*
G36*
G01*
X207112500Y-100625000D02*
X207812500Y-100625000D01*
G75*
G02*
X207875000Y-100687500I0J-62500D01*
G01*
X207875000Y-100812500D01*
G75*
G02*
X207812500Y-100875000I-62500J0D01*
G01*
X207112500Y-100875000D01*
G75*
G02*
X207050000Y-100812500I0J62500D01*
G01*
X207050000Y-100687500D01*
G75*
G02*
X207112500Y-100625000I62500J0D01*
G01*
G37*
G36*
G01*
X207112500Y-101125000D02*
X207812500Y-101125000D01*
G75*
G02*
X207875000Y-101187500I0J-62500D01*
G01*
X207875000Y-101312500D01*
G75*
G02*
X207812500Y-101375000I-62500J0D01*
G01*
X207112500Y-101375000D01*
G75*
G02*
X207050000Y-101312500I0J62500D01*
G01*
X207050000Y-101187500D01*
G75*
G02*
X207112500Y-101125000I62500J0D01*
G01*
G37*
G36*
G01*
X206687500Y-101550000D02*
X206812500Y-101550000D01*
G75*
G02*
X206875000Y-101612500I0J-62500D01*
G01*
X206875000Y-102312500D01*
G75*
G02*
X206812500Y-102375000I-62500J0D01*
G01*
X206687500Y-102375000D01*
G75*
G02*
X206625000Y-102312500I0J62500D01*
G01*
X206625000Y-101612500D01*
G75*
G02*
X206687500Y-101550000I62500J0D01*
G01*
G37*
G36*
G01*
X206187500Y-101550000D02*
X206312500Y-101550000D01*
G75*
G02*
X206375000Y-101612500I0J-62500D01*
G01*
X206375000Y-102312500D01*
G75*
G02*
X206312500Y-102375000I-62500J0D01*
G01*
X206187500Y-102375000D01*
G75*
G02*
X206125000Y-102312500I0J62500D01*
G01*
X206125000Y-101612500D01*
G75*
G02*
X206187500Y-101550000I62500J0D01*
G01*
G37*
G36*
G01*
X205687500Y-101550000D02*
X205812500Y-101550000D01*
G75*
G02*
X205875000Y-101612500I0J-62500D01*
G01*
X205875000Y-102312500D01*
G75*
G02*
X205812500Y-102375000I-62500J0D01*
G01*
X205687500Y-102375000D01*
G75*
G02*
X205625000Y-102312500I0J62500D01*
G01*
X205625000Y-101612500D01*
G75*
G02*
X205687500Y-101550000I62500J0D01*
G01*
G37*
G36*
G01*
X205187500Y-101550000D02*
X205312500Y-101550000D01*
G75*
G02*
X205375000Y-101612500I0J-62500D01*
G01*
X205375000Y-102312500D01*
G75*
G02*
X205312500Y-102375000I-62500J0D01*
G01*
X205187500Y-102375000D01*
G75*
G02*
X205125000Y-102312500I0J62500D01*
G01*
X205125000Y-101612500D01*
G75*
G02*
X205187500Y-101550000I62500J0D01*
G01*
G37*
G36*
G01*
X204687500Y-101550000D02*
X204812500Y-101550000D01*
G75*
G02*
X204875000Y-101612500I0J-62500D01*
G01*
X204875000Y-102312500D01*
G75*
G02*
X204812500Y-102375000I-62500J0D01*
G01*
X204687500Y-102375000D01*
G75*
G02*
X204625000Y-102312500I0J62500D01*
G01*
X204625000Y-101612500D01*
G75*
G02*
X204687500Y-101550000I62500J0D01*
G01*
G37*
G36*
G01*
X204187500Y-101550000D02*
X204312500Y-101550000D01*
G75*
G02*
X204375000Y-101612500I0J-62500D01*
G01*
X204375000Y-102312500D01*
G75*
G02*
X204312500Y-102375000I-62500J0D01*
G01*
X204187500Y-102375000D01*
G75*
G02*
X204125000Y-102312500I0J62500D01*
G01*
X204125000Y-101612500D01*
G75*
G02*
X204187500Y-101550000I62500J0D01*
G01*
G37*
G36*
G01*
X203187500Y-101125000D02*
X203887500Y-101125000D01*
G75*
G02*
X203950000Y-101187500I0J-62500D01*
G01*
X203950000Y-101312500D01*
G75*
G02*
X203887500Y-101375000I-62500J0D01*
G01*
X203187500Y-101375000D01*
G75*
G02*
X203125000Y-101312500I0J62500D01*
G01*
X203125000Y-101187500D01*
G75*
G02*
X203187500Y-101125000I62500J0D01*
G01*
G37*
G36*
G01*
X203187500Y-100625000D02*
X203887500Y-100625000D01*
G75*
G02*
X203950000Y-100687500I0J-62500D01*
G01*
X203950000Y-100812500D01*
G75*
G02*
X203887500Y-100875000I-62500J0D01*
G01*
X203187500Y-100875000D01*
G75*
G02*
X203125000Y-100812500I0J62500D01*
G01*
X203125000Y-100687500D01*
G75*
G02*
X203187500Y-100625000I62500J0D01*
G01*
G37*
G36*
G01*
X203187500Y-100125000D02*
X203887500Y-100125000D01*
G75*
G02*
X203950000Y-100187500I0J-62500D01*
G01*
X203950000Y-100312500D01*
G75*
G02*
X203887500Y-100375000I-62500J0D01*
G01*
X203187500Y-100375000D01*
G75*
G02*
X203125000Y-100312500I0J62500D01*
G01*
X203125000Y-100187500D01*
G75*
G02*
X203187500Y-100125000I62500J0D01*
G01*
G37*
G36*
G01*
X203187500Y-99625000D02*
X203887500Y-99625000D01*
G75*
G02*
X203950000Y-99687500I0J-62500D01*
G01*
X203950000Y-99812500D01*
G75*
G02*
X203887500Y-99875000I-62500J0D01*
G01*
X203187500Y-99875000D01*
G75*
G02*
X203125000Y-99812500I0J62500D01*
G01*
X203125000Y-99687500D01*
G75*
G02*
X203187500Y-99625000I62500J0D01*
G01*
G37*
G36*
G01*
X203187500Y-99125000D02*
X203887500Y-99125000D01*
G75*
G02*
X203950000Y-99187500I0J-62500D01*
G01*
X203950000Y-99312500D01*
G75*
G02*
X203887500Y-99375000I-62500J0D01*
G01*
X203187500Y-99375000D01*
G75*
G02*
X203125000Y-99312500I0J62500D01*
G01*
X203125000Y-99187500D01*
G75*
G02*
X203187500Y-99125000I62500J0D01*
G01*
G37*
G36*
G01*
X203187500Y-98625000D02*
X203887500Y-98625000D01*
G75*
G02*
X203950000Y-98687500I0J-62500D01*
G01*
X203950000Y-98812500D01*
G75*
G02*
X203887500Y-98875000I-62500J0D01*
G01*
X203187500Y-98875000D01*
G75*
G02*
X203125000Y-98812500I0J62500D01*
G01*
X203125000Y-98687500D01*
G75*
G02*
X203187500Y-98625000I62500J0D01*
G01*
G37*
G36*
G01*
X204187500Y-97625000D02*
X204312500Y-97625000D01*
G75*
G02*
X204375000Y-97687500I0J-62500D01*
G01*
X204375000Y-98387500D01*
G75*
G02*
X204312500Y-98450000I-62500J0D01*
G01*
X204187500Y-98450000D01*
G75*
G02*
X204125000Y-98387500I0J62500D01*
G01*
X204125000Y-97687500D01*
G75*
G02*
X204187500Y-97625000I62500J0D01*
G01*
G37*
G36*
G01*
X204687500Y-97625000D02*
X204812500Y-97625000D01*
G75*
G02*
X204875000Y-97687500I0J-62500D01*
G01*
X204875000Y-98387500D01*
G75*
G02*
X204812500Y-98450000I-62500J0D01*
G01*
X204687500Y-98450000D01*
G75*
G02*
X204625000Y-98387500I0J62500D01*
G01*
X204625000Y-97687500D01*
G75*
G02*
X204687500Y-97625000I62500J0D01*
G01*
G37*
G36*
G01*
X205187500Y-97625000D02*
X205312500Y-97625000D01*
G75*
G02*
X205375000Y-97687500I0J-62500D01*
G01*
X205375000Y-98387500D01*
G75*
G02*
X205312500Y-98450000I-62500J0D01*
G01*
X205187500Y-98450000D01*
G75*
G02*
X205125000Y-98387500I0J62500D01*
G01*
X205125000Y-97687500D01*
G75*
G02*
X205187500Y-97625000I62500J0D01*
G01*
G37*
G36*
G01*
X205687500Y-97625000D02*
X205812500Y-97625000D01*
G75*
G02*
X205875000Y-97687500I0J-62500D01*
G01*
X205875000Y-98387500D01*
G75*
G02*
X205812500Y-98450000I-62500J0D01*
G01*
X205687500Y-98450000D01*
G75*
G02*
X205625000Y-98387500I0J62500D01*
G01*
X205625000Y-97687500D01*
G75*
G02*
X205687500Y-97625000I62500J0D01*
G01*
G37*
G36*
G01*
X206187500Y-97625000D02*
X206312500Y-97625000D01*
G75*
G02*
X206375000Y-97687500I0J-62500D01*
G01*
X206375000Y-98387500D01*
G75*
G02*
X206312500Y-98450000I-62500J0D01*
G01*
X206187500Y-98450000D01*
G75*
G02*
X206125000Y-98387500I0J62500D01*
G01*
X206125000Y-97687500D01*
G75*
G02*
X206187500Y-97625000I62500J0D01*
G01*
G37*
G36*
G01*
X206687500Y-97625000D02*
X206812500Y-97625000D01*
G75*
G02*
X206875000Y-97687500I0J-62500D01*
G01*
X206875000Y-98387500D01*
G75*
G02*
X206812500Y-98450000I-62500J0D01*
G01*
X206687500Y-98450000D01*
G75*
G02*
X206625000Y-98387500I0J62500D01*
G01*
X206625000Y-97687500D01*
G75*
G02*
X206687500Y-97625000I62500J0D01*
G01*
G37*
%TD*%
%TO.C,C1*%
G36*
G01*
X218482500Y-111025000D02*
X218482500Y-111975000D01*
G75*
G02*
X218232500Y-112225000I-250000J0D01*
G01*
X217557500Y-112225000D01*
G75*
G02*
X217307500Y-111975000I0J250000D01*
G01*
X217307500Y-111025000D01*
G75*
G02*
X217557500Y-110775000I250000J0D01*
G01*
X218232500Y-110775000D01*
G75*
G02*
X218482500Y-111025000I0J-250000D01*
G01*
G37*
G36*
G01*
X220557500Y-111025000D02*
X220557500Y-111975000D01*
G75*
G02*
X220307500Y-112225000I-250000J0D01*
G01*
X219632500Y-112225000D01*
G75*
G02*
X219382500Y-111975000I0J250000D01*
G01*
X219382500Y-111025000D01*
G75*
G02*
X219632500Y-110775000I250000J0D01*
G01*
X220307500Y-110775000D01*
G75*
G02*
X220557500Y-111025000I0J-250000D01*
G01*
G37*
%TD*%
%TO.C,C2*%
G36*
G01*
X218550000Y-108525000D02*
X218550000Y-109475000D01*
G75*
G02*
X218300000Y-109725000I-250000J0D01*
G01*
X217625000Y-109725000D01*
G75*
G02*
X217375000Y-109475000I0J250000D01*
G01*
X217375000Y-108525000D01*
G75*
G02*
X217625000Y-108275000I250000J0D01*
G01*
X218300000Y-108275000D01*
G75*
G02*
X218550000Y-108525000I0J-250000D01*
G01*
G37*
G36*
G01*
X220625000Y-108525000D02*
X220625000Y-109475000D01*
G75*
G02*
X220375000Y-109725000I-250000J0D01*
G01*
X219700000Y-109725000D01*
G75*
G02*
X219450000Y-109475000I0J250000D01*
G01*
X219450000Y-108525000D01*
G75*
G02*
X219700000Y-108275000I250000J0D01*
G01*
X220375000Y-108275000D01*
G75*
G02*
X220625000Y-108525000I0J-250000D01*
G01*
G37*
%TD*%
D19*
%TO.C,D1*%
X206141000Y-118808500D03*
X208641000Y-118808500D03*
%TD*%
%TO.C,R1*%
G36*
G01*
X195996000Y-104717001D02*
X195996000Y-103816999D01*
G75*
G02*
X196245999Y-103567000I249999J0D01*
G01*
X196946001Y-103567000D01*
G75*
G02*
X197196000Y-103816999I0J-249999D01*
G01*
X197196000Y-104717001D01*
G75*
G02*
X196946001Y-104967000I-249999J0D01*
G01*
X196245999Y-104967000D01*
G75*
G02*
X195996000Y-104717001I0J249999D01*
G01*
G37*
G36*
G01*
X197996000Y-104717001D02*
X197996000Y-103816999D01*
G75*
G02*
X198245999Y-103567000I249999J0D01*
G01*
X198946001Y-103567000D01*
G75*
G02*
X199196000Y-103816999I0J-249999D01*
G01*
X199196000Y-104717001D01*
G75*
G02*
X198946001Y-104967000I-249999J0D01*
G01*
X198245999Y-104967000D01*
G75*
G02*
X197996000Y-104717001I0J249999D01*
G01*
G37*
%TD*%
%TO.C,R2*%
G36*
G01*
X195996000Y-102812001D02*
X195996000Y-101911999D01*
G75*
G02*
X196245999Y-101662000I249999J0D01*
G01*
X196946001Y-101662000D01*
G75*
G02*
X197196000Y-101911999I0J-249999D01*
G01*
X197196000Y-102812001D01*
G75*
G02*
X196946001Y-103062000I-249999J0D01*
G01*
X196245999Y-103062000D01*
G75*
G02*
X195996000Y-102812001I0J249999D01*
G01*
G37*
G36*
G01*
X197996000Y-102812001D02*
X197996000Y-101911999D01*
G75*
G02*
X198245999Y-101662000I249999J0D01*
G01*
X198946001Y-101662000D01*
G75*
G02*
X199196000Y-101911999I0J-249999D01*
G01*
X199196000Y-102812001D01*
G75*
G02*
X198946001Y-103062000I-249999J0D01*
G01*
X198245999Y-103062000D01*
G75*
G02*
X197996000Y-102812001I0J249999D01*
G01*
G37*
%TD*%
%TO.C,R3*%
G36*
G01*
X204244500Y-118358499D02*
X204244500Y-119258501D01*
G75*
G02*
X203994501Y-119508500I-249999J0D01*
G01*
X203294499Y-119508500D01*
G75*
G02*
X203044500Y-119258501I0J249999D01*
G01*
X203044500Y-118358499D01*
G75*
G02*
X203294499Y-118108500I249999J0D01*
G01*
X203994501Y-118108500D01*
G75*
G02*
X204244500Y-118358499I0J-249999D01*
G01*
G37*
G36*
G01*
X202244500Y-118358499D02*
X202244500Y-119258501D01*
G75*
G02*
X201994501Y-119508500I-249999J0D01*
G01*
X201294499Y-119508500D01*
G75*
G02*
X201044500Y-119258501I0J249999D01*
G01*
X201044500Y-118358499D01*
G75*
G02*
X201294499Y-118108500I249999J0D01*
G01*
X201994501Y-118108500D01*
G75*
G02*
X202244500Y-118358499I0J-249999D01*
G01*
G37*
%TD*%
%TO.C,C3*%
G36*
G01*
X212761500Y-98204000D02*
X212761500Y-99154000D01*
G75*
G02*
X212511500Y-99404000I-250000J0D01*
G01*
X211836500Y-99404000D01*
G75*
G02*
X211586500Y-99154000I0J250000D01*
G01*
X211586500Y-98204000D01*
G75*
G02*
X211836500Y-97954000I250000J0D01*
G01*
X212511500Y-97954000D01*
G75*
G02*
X212761500Y-98204000I0J-250000D01*
G01*
G37*
G36*
G01*
X214836500Y-98204000D02*
X214836500Y-99154000D01*
G75*
G02*
X214586500Y-99404000I-250000J0D01*
G01*
X213911500Y-99404000D01*
G75*
G02*
X213661500Y-99154000I0J250000D01*
G01*
X213661500Y-98204000D01*
G75*
G02*
X213911500Y-97954000I250000J0D01*
G01*
X214586500Y-97954000D01*
G75*
G02*
X214836500Y-98204000I0J-250000D01*
G01*
G37*
%TD*%
%TO.C,C4*%
G36*
G01*
X210660000Y-97107500D02*
X209710000Y-97107500D01*
G75*
G02*
X209460000Y-96857500I0J250000D01*
G01*
X209460000Y-96182500D01*
G75*
G02*
X209710000Y-95932500I250000J0D01*
G01*
X210660000Y-95932500D01*
G75*
G02*
X210910000Y-96182500I0J-250000D01*
G01*
X210910000Y-96857500D01*
G75*
G02*
X210660000Y-97107500I-250000J0D01*
G01*
G37*
G36*
G01*
X210660000Y-99182500D02*
X209710000Y-99182500D01*
G75*
G02*
X209460000Y-98932500I0J250000D01*
G01*
X209460000Y-98257500D01*
G75*
G02*
X209710000Y-98007500I250000J0D01*
G01*
X210660000Y-98007500D01*
G75*
G02*
X210910000Y-98257500I0J-250000D01*
G01*
X210910000Y-98932500D01*
G75*
G02*
X210660000Y-99182500I-250000J0D01*
G01*
G37*
%TD*%
M02*
